<?xml version="1.0" encoding="UTF-8" standalone="no"?>
<!-- Created with Inkscape (http://www.inkscape.org/) -->

<svg
   xmlns:dc="http://purl.org/dc/elements/1.1/"
   xmlns:cc="http://creativecommons.org/ns#"
   xmlns:rdf="http://www.w3.org/1999/02/22-rdf-syntax-ns#"
   xmlns:svg="http://www.w3.org/2000/svg"
   xmlns="http://www.w3.org/2000/svg"
   xmlns:sodipodi="http://sodipodi.sourceforge.net/DTD/sodipodi-0.dtd"
   xmlns:inkscape="http://www.inkscape.org/namespaces/inkscape"
   width="176"
   height="11"
   viewBox="0 0 46.566669 2.9104166"
   version="1.1"
   id="svg111"
   inkscape:version="0.92.4 (unknown)"
   sodipodi:docname="brand.svg">
  <defs
     id="defs105" />
  <sodipodi:namedview
     id="base"
     pagecolor="#ffffff"
     bordercolor="#666666"
     borderopacity="1.0"
     inkscape:pageopacity="0.0"
     inkscape:pageshadow="2"
     inkscape:zoom="5.6"
     inkscape:cx="93.423114"
     inkscape:cy="-16.750995"
     inkscape:document-units="mm"
     inkscape:current-layer="layer1"
     showgrid="false"
     inkscape:window-width="1920"
     inkscape:window-height="1136"
     inkscape:window-x="1920"
     inkscape:window-y="27"
     inkscape:window-maximized="1"
     fit-margin-top="0"
     fit-margin-left="0"
     fit-margin-right="0"
     fit-margin-bottom="0"
     showguides="true"
     inkscape:guide-bbox="true"
     units="px">
    <sodipodi:guide
       position="46.632813,-1.889881"
       orientation="1,0"
       id="guide40"
       inkscape:locked="false" />
    <sodipodi:guide
       position="0.0072892156,2.9258869"
       orientation="1,0"
       id="guide42"
       inkscape:locked="false" />
  </sodipodi:namedview>
  <metadata
     id="metadata108">
    <rdf:RDF>
      <cc:Work
         rdf:about="">
        <dc:format>image/svg+xml</dc:format>
        <dc:type
           rdf:resource="http://purl.org/dc/dcmitype/StillImage" />
        <dc:title></dc:title>
      </cc:Work>
    </rdf:RDF>
  </metadata>
  <g
     inkscape:label="Layer 1"
     inkscape:groupmode="layer"
     id="layer1"
     transform="translate(-37.023879,-73.443813)">
    <g
       aria-label="PR-CI DASHBOARD"
       transform="scale(0.97072837,1.0301543)"
       style="font-style:normal;font-variant:normal;font-weight:normal;font-stretch:normal;font-size:11.53367519px;line-height:1.25;font-family:'Open Sans';-inkscape-font-specification:'Open Sans';letter-spacing:0.5766837px;word-spacing:0px;fill:#ffffff;fill-opacity:1;stroke:none;stroke-width:0.28834185"
       id="text81">
      <path
         d="m 38.147817,71.278975 h 1.199547 q 0.535009,0 0.820348,0.238408 0.287215,0.23653 0.287215,0.675801 0,0.441148 -0.287215,0.679556 -0.285339,0.23653 -0.820348,0.23653 h -0.476815 v 0.972403 h -0.722732 z m 0.722732,0.523746 v 0.782803 h 0.399849 q 0.210249,0 0.32476,-0.10137 0.114511,-0.103247 0.114511,-0.29097 0,-0.187722 -0.114511,-0.289093 -0.114511,-0.10137 -0.32476,-0.10137 z"
         style="font-style:normal;font-variant:normal;font-weight:bold;font-stretch:normal;font-size:3.84455729px;font-family:'Open Sans';-inkscape-font-specification:'Open Sans Bold';letter-spacing:0.5766837px;stroke-width:0.28834185"
         id="path11"
         inkscape:connector-curvature="0" />
      <path
         d="m 42.567181,72.521698 q 0.227144,0 0.32476,-0.08447 0.09949,-0.08447 0.09949,-0.277829 0,-0.191477 -0.09949,-0.274075 -0.09762,-0.0826 -0.32476,-0.0826 h -0.30411 v 0.718977 z m -0.30411,0.499342 v 1.060633 h -0.722732 v -2.802698 h 1.103808 q 0.553782,0 0.810962,0.185846 0.259057,0.185845 0.259057,0.587571 0,0.27783 -0.13516,0.456166 -0.133283,0.178336 -0.403604,0.262811 0.148301,0.03379 0.264689,0.153933 0.118265,0.118265 0.238407,0.360427 l 0.392341,0.795944 h -0.769663 l -0.341655,-0.696451 q -0.103247,-0.210249 -0.210249,-0.287215 -0.105125,-0.07697 -0.281584,-0.07697 z"
         style="font-style:normal;font-variant:normal;font-weight:bold;font-stretch:normal;font-size:3.84455729px;font-family:'Open Sans';-inkscape-font-specification:'Open Sans Bold';letter-spacing:0.5766837px;stroke-width:0.28834185"
         id="path13"
         inkscape:connector-curvature="0" />
      <path
         d="m 44.930983,72.701912 h 1.178898 v 0.546273 h -1.178898 z"
         style="font-style:normal;font-variant:normal;font-weight:bold;font-stretch:normal;font-size:3.84455729px;font-family:'Open Sans';-inkscape-font-specification:'Open Sans Bold';letter-spacing:0.5766837px;stroke-width:0.28834185"
         id="path15"
         inkscape:connector-curvature="0" />
      <path
         d="m 49.474244,73.92774 q -0.198986,0.103248 -0.414867,0.15581 -0.21588,0.05256 -0.450534,0.05256 -0.700205,0 -1.10944,-0.390463 -0.409235,-0.39234 -0.409235,-1.062509 0,-0.672047 0.409235,-1.06251 0.409235,-0.39234 1.10944,-0.39234 0.234654,0 0.450534,0.05256 0.215881,0.05256 0.414867,0.155809 v 0.580063 q -0.200863,-0.137038 -0.396094,-0.200863 -0.195232,-0.06383 -0.411113,-0.06383 -0.386708,0 -0.608221,0.247794 -0.221512,0.247794 -0.221512,0.68331 0,0.433639 0.221512,0.681433 0.221513,0.247793 0.608221,0.247793 0.215881,0 0.411113,-0.06382 0.195231,-0.06383 0.396094,-0.200863 z"
         style="font-style:normal;font-variant:normal;font-weight:bold;font-stretch:normal;font-size:3.84455729px;font-family:'Open Sans';-inkscape-font-specification:'Open Sans Bold';letter-spacing:0.5766837px;stroke-width:0.28834185"
         id="path17"
         inkscape:connector-curvature="0" />
      <path
         d="m 50.65164,71.278975 h 0.722731 v 2.802698 H 50.65164 Z"
         style="font-style:normal;font-variant:normal;font-weight:bold;font-stretch:normal;font-size:3.84455729px;font-family:'Open Sans';-inkscape-font-specification:'Open Sans Bold';letter-spacing:0.5766837px;stroke-width:0.28834185"
         id="path19"
         inkscape:connector-curvature="0" />
      <path
         d="M 55.298524,71.825248 V 73.5354 h 0.259057 q 0.443025,0 0.675801,-0.219635 0.234653,-0.219636 0.234653,-0.638257 0,-0.416744 -0.232776,-0.634502 -0.232776,-0.217758 -0.677678,-0.217758 z m -0.722732,-0.546273 h 0.762153 q 0.638257,0 0.949876,0.09198 0.313497,0.09011 0.536887,0.307865 0.197109,0.1896 0.292847,0.437394 0.09574,0.247794 0.09574,0.56129 0,0.317251 -0.09574,0.566922 -0.09574,0.247794 -0.292847,0.437394 -0.225267,0.217758 -0.540641,0.309742 -0.315374,0.09011 -0.946122,0.09011 h -0.762153 z"
         style="font-style:normal;font-variant:normal;font-weight:bold;font-stretch:normal;font-size:3.84455729px;font-family:'Open Sans';-inkscape-font-specification:'Open Sans Bold';letter-spacing:0.5766837px;stroke-width:0.28834185"
         id="path21"
         inkscape:connector-curvature="0" />
      <path
         d="m 60.044523,73.571067 h -1.130089 l -0.178337,0.510606 h -0.726486 l 1.038106,-2.802698 h 0.861646 l 1.038106,2.802698 h -0.726486 z m -0.949876,-0.519991 h 0.767786 l -0.382954,-1.115072 z"
         style="font-style:normal;font-variant:normal;font-weight:bold;font-stretch:normal;font-size:3.84455729px;font-family:'Open Sans';-inkscape-font-specification:'Open Sans Bold';letter-spacing:0.5766837px;stroke-width:0.28834185"
         id="path23"
         inkscape:connector-curvature="0" />
      <path
         d="m 63.844403,71.367205 v 0.593203 q -0.230898,-0.103247 -0.450534,-0.15581 -0.219635,-0.05256 -0.414866,-0.05256 -0.259058,0 -0.382954,0.07133 -0.123897,0.07133 -0.123897,0.221512 0,0.112634 0.0826,0.176459 0.08448,0.06195 0.30411,0.107002 l 0.307865,0.06195 q 0.467429,0.09386 0.664538,0.285338 0.197108,0.191477 0.197108,0.544395 0,0.463675 -0.275952,0.690819 -0.274075,0.225267 -0.839119,0.225267 -0.266566,0 -0.535009,-0.05069 -0.268444,-0.05069 -0.536887,-0.150178 v -0.610098 q 0.268443,0.142669 0.518114,0.215881 0.251548,0.07133 0.484324,0.07133 0.236531,0 0.362305,-0.07884 0.125774,-0.07884 0.125774,-0.225267 0,-0.131406 -0.08635,-0.20274 -0.08448,-0.07133 -0.339778,-0.127652 l -0.279707,-0.06195 Q 62.205586,72.825809 62.010354,72.6287 61.817,72.431592 61.817,72.097446 q 0,-0.418622 0.270321,-0.643889 0.27032,-0.225267 0.777171,-0.225267 0.230899,0 0.474938,0.03567 0.244039,0.03379 0.504973,0.103247 z"
         style="font-style:normal;font-variant:normal;font-weight:bold;font-stretch:normal;font-size:3.84455729px;font-family:'Open Sans';-inkscape-font-specification:'Open Sans Bold';letter-spacing:0.5766837px;stroke-width:0.28834185"
         id="path25"
         inkscape:connector-curvature="0" />
      <path
         d="m 65.241436,71.278975 h 0.722731 v 1.068142 h 1.066264 v -1.068142 h 0.722732 v 2.802698 h -0.722732 v -1.188284 h -1.066264 v 1.188284 h -0.722731 z"
         style="font-style:normal;font-variant:normal;font-weight:bold;font-stretch:normal;font-size:3.84455729px;font-family:'Open Sans';-inkscape-font-specification:'Open Sans Bold';letter-spacing:0.5766837px;stroke-width:0.28834185"
         id="path27"
         inkscape:connector-curvature="0" />
      <path
         d="m 70.162019,72.364012 q 0.170827,0 0.259057,-0.07509 0.08823,-0.07509 0.08823,-0.221513 0,-0.144546 -0.08823,-0.219635 -0.08823,-0.07697 -0.259057,-0.07697 H 69.76217 v 0.593204 z m 0.0244,1.225828 q 0.217758,0 0.326637,-0.09198 0.110756,-0.09198 0.110756,-0.27783 0,-0.182091 -0.108879,-0.272197 -0.108879,-0.09198 -0.328514,-0.09198 H 69.76217 v 0.733995 z m 0.672046,-1.00807 q 0.232776,0.06758 0.360427,0.249671 0.127652,0.182091 0.127652,0.446779 0,0.405481 -0.274075,0.604467 -0.274075,0.198986 -0.833488,0.198986 h -1.199547 v -2.802698 h 1.085036 q 0.583817,0 0.844752,0.17646 0.262811,0.176459 0.262811,0.565044 0,0.204618 -0.09574,0.349164 -0.09574,0.142669 -0.27783,0.212127 z"
         style="font-style:normal;font-variant:normal;font-weight:bold;font-stretch:normal;font-size:3.84455729px;font-family:'Open Sans';-inkscape-font-specification:'Open Sans Bold';letter-spacing:0.5766837px;stroke-width:0.28834185"
         id="path29"
         inkscape:connector-curvature="0" />
      <path
         d="m 73.824859,71.752036 q -0.330391,0 -0.512482,0.244039 -0.182091,0.24404 -0.182091,0.687065 0,0.441148 0.182091,0.685187 0.182091,0.244039 0.512482,0.244039 0.332269,0 0.51436,-0.244039 0.182091,-0.244039 0.182091,-0.685187 0,-0.443025 -0.182091,-0.687065 -0.182091,-0.244039 -0.51436,-0.244039 z m 0,-0.523746 q 0.675801,0 1.058755,0.386709 0.382954,0.386708 0.382954,1.068141 0,0.679555 -0.382954,1.066264 -0.382954,0.386708 -1.058755,0.386708 -0.673924,0 -1.058755,-0.386708 -0.382954,-0.386709 -0.382954,-1.066264 0,-0.681433 0.382954,-1.068141 0.384831,-0.386709 1.058755,-0.386709 z"
         style="font-style:normal;font-variant:normal;font-weight:bold;font-stretch:normal;font-size:3.84455729px;font-family:'Open Sans';-inkscape-font-specification:'Open Sans Bold';letter-spacing:0.5766837px;stroke-width:0.28834185"
         id="path31"
         inkscape:connector-curvature="0" />
      <path
         d="m 77.983288,73.571067 h -1.13009 l -0.178336,0.510606 h -0.726486 l 1.038105,-2.802698 h 0.861647 l 1.038105,2.802698 h -0.726486 z m -0.949876,-0.519991 h 0.767785 l -0.382954,-1.115072 z"
         style="font-style:normal;font-variant:normal;font-weight:bold;font-stretch:normal;font-size:3.84455729px;font-family:'Open Sans';-inkscape-font-specification:'Open Sans Bold';letter-spacing:0.5766837px;stroke-width:0.28834185"
         id="path33"
         inkscape:connector-curvature="0" />
      <path
         d="m 80.859573,72.521698 q 0.227144,0 0.32476,-0.08447 0.09949,-0.08447 0.09949,-0.277829 0,-0.191477 -0.09949,-0.274075 -0.09762,-0.0826 -0.32476,-0.0826 h -0.30411 v 0.718977 z m -0.30411,0.499342 v 1.060633 h -0.722732 v -2.802698 h 1.103808 q 0.553782,0 0.810962,0.185846 0.259057,0.185845 0.259057,0.587571 0,0.27783 -0.13516,0.456166 -0.133283,0.178336 -0.403604,0.262811 0.148301,0.03379 0.264689,0.153933 0.118265,0.118265 0.238408,0.360427 l 0.39234,0.795944 H 81.593568 L 81.251913,73.385222 Q 81.148666,73.174973 81.041664,73.098007 80.936539,73.02104 80.76008,73.02104 Z"
         style="font-style:normal;font-variant:normal;font-weight:bold;font-stretch:normal;font-size:3.84455729px;font-family:'Open Sans';-inkscape-font-specification:'Open Sans Bold';letter-spacing:0.5766837px;stroke-width:0.28834185"
         id="path35"
         inkscape:connector-curvature="0" />
      <path
         d="M 84.090653,71.825248 V 73.5354 h 0.259057 q 0.443026,0 0.675801,-0.219635 0.234654,-0.219636 0.234654,-0.638257 0,-0.416744 -0.232776,-0.634502 -0.232776,-0.217758 -0.677679,-0.217758 z m -0.722731,-0.546273 h 0.762153 q 0.638257,0 0.949876,0.09198 0.313497,0.09011 0.536886,0.307865 0.197109,0.1896 0.292848,0.437394 0.09574,0.247794 0.09574,0.56129 0,0.317251 -0.09574,0.566922 -0.09574,0.247794 -0.292848,0.437394 -0.225267,0.217758 -0.54064,0.309742 -0.315374,0.09011 -0.946122,0.09011 h -0.762153 z"
         style="font-style:normal;font-variant:normal;font-weight:bold;font-stretch:normal;font-size:3.84455729px;font-family:'Open Sans';-inkscape-font-specification:'Open Sans Bold';letter-spacing:0.5766837px;stroke-width:0.28834185"
         id="path37"
         inkscape:connector-curvature="0" />
    </g>
  </g>
</svg>
