<?xml version="1.0" encoding="UTF-8" standalone="no"?>
<svg
   xmlns:dc="http://purl.org/dc/elements/1.1/"
   xmlns:cc="http://creativecommons.org/ns#"
   xmlns:rdf="http://www.w3.org/1999/02/22-rdf-syntax-ns#"
   xmlns:svg="http://www.w3.org/2000/svg"
   xmlns="http://www.w3.org/2000/svg"
   xmlns:sodipodi="http://sodipodi.sourceforge.net/DTD/sodipodi-0.dtd"
   xmlns:inkscape="http://www.inkscape.org/namespaces/inkscape"
   id="svg111"
   version="1.1"
   viewBox="0 0 56.356239 7.9374993"
   height="30"
   width="213"
   sodipodi:docname="logo-brand.svg"
   inkscape:version="0.92.4 (unknown)">
  <sodipodi:namedview
     pagecolor="#ffffff"
     bordercolor="#666666"
     borderopacity="1"
     objecttolerance="10"
     gridtolerance="10"
     guidetolerance="10"
     inkscape:pageopacity="0"
     inkscape:pageshadow="2"
     inkscape:window-width="1920"
     inkscape:window-height="1136"
     id="namedview27"
     showgrid="false"
     showguides="true"
     inkscape:guide-bbox="true"
     fit-margin-bottom="2.7755576e-17"
     fit-margin-top="0"
     fit-margin-left="0"
     fit-margin-right="0"
     inkscape:zoom="3.0275229"
     inkscape:cx="94.495219"
     inkscape:cy="7.2645024"
     inkscape:window-x="1920"
     inkscape:window-y="27"
     inkscape:window-maximized="1"
     inkscape:current-layer="svg111">
    <sodipodi:guide
       position="10.324226,8.6264771"
       orientation="0,1"
       id="guide31"
       inkscape:locked="false" />
    <sodipodi:guide
       position="11.460331,-0.72453879"
       orientation="0,1"
       id="guide33"
       inkscape:locked="false" />
    <sodipodi:guide
       position="-0.337678,-7.1042038"
       orientation="1,0"
       id="guide35"
       inkscape:locked="false" />
    <sodipodi:guide
       position="57.341475,-8.1529163"
       orientation="1,0"
       id="guide37"
       inkscape:locked="false" />
  </sodipodi:namedview>
  <defs
     id="defs105" />
  <metadata
     id="metadata108">
    <rdf:RDF>
      <cc:Work
         rdf:about="">
        <dc:format>image/svg+xml</dc:format>
        <dc:type
           rdf:resource="http://purl.org/dc/dcmitype/StillImage" />
        <dc:title></dc:title>
      </cc:Work>
    </rdf:RDF>
  </metadata>
  <g
     transform="translate(-37.361557,-70.576157)"
     id="layer1">
    <g
       id="text81"
       style="font-style:normal;font-variant:normal;font-weight:normal;font-stretch:normal;font-size:11.53367519px;line-height:1.25;font-family:'Open Sans';-inkscape-font-specification:'Open Sans';letter-spacing:0.5766837px;word-spacing:0px;fill:#ffffff;fill-opacity:1;stroke:none;stroke-width:0.28834185"
       transform="matrix(0.97072837,0,0,1.0301543,10.054167,0)"
       aria-label="PR-CI DASHBOARD">
      <path
         id="path11"
         style="font-style:normal;font-variant:normal;font-weight:bold;font-stretch:normal;font-size:3.84455729px;font-family:'Open Sans';-inkscape-font-specification:'Open Sans Bold';letter-spacing:0.5766837px;stroke-width:0.28834185"
         d="m 38.147817,71.278975 h 1.199547 q 0.535009,0 0.820348,0.238408 0.287215,0.23653 0.287215,0.675801 0,0.441148 -0.287215,0.679556 -0.285339,0.23653 -0.820348,0.23653 h -0.476815 v 0.972403 h -0.722732 z m 0.722732,0.523746 v 0.782803 h 0.399849 q 0.210249,0 0.32476,-0.10137 0.114511,-0.103247 0.114511,-0.29097 0,-0.187722 -0.114511,-0.289093 -0.114511,-0.10137 -0.32476,-0.10137 z"
         inkscape:connector-curvature="0" />
      <path
         id="path13"
         style="font-style:normal;font-variant:normal;font-weight:bold;font-stretch:normal;font-size:3.84455729px;font-family:'Open Sans';-inkscape-font-specification:'Open Sans Bold';letter-spacing:0.5766837px;stroke-width:0.28834185"
         d="m 42.567181,72.521698 q 0.227144,0 0.32476,-0.08447 0.09949,-0.08447 0.09949,-0.277829 0,-0.191477 -0.09949,-0.274075 -0.09762,-0.0826 -0.32476,-0.0826 h -0.30411 v 0.718977 z m -0.30411,0.499342 v 1.060633 h -0.722732 v -2.802698 h 1.103808 q 0.553782,0 0.810962,0.185846 0.259057,0.185845 0.259057,0.587571 0,0.27783 -0.13516,0.456166 -0.133283,0.178336 -0.403604,0.262811 0.148301,0.03379 0.264689,0.153933 0.118265,0.118265 0.238407,0.360427 l 0.392341,0.795944 h -0.769663 l -0.341655,-0.696451 q -0.103247,-0.210249 -0.210249,-0.287215 -0.105125,-0.07697 -0.281584,-0.07697 z"
         inkscape:connector-curvature="0" />
      <path
         id="path15"
         style="font-style:normal;font-variant:normal;font-weight:bold;font-stretch:normal;font-size:3.84455729px;font-family:'Open Sans';-inkscape-font-specification:'Open Sans Bold';letter-spacing:0.5766837px;stroke-width:0.28834185"
         d="m 44.930983,72.701912 h 1.178898 v 0.546273 h -1.178898 z"
         inkscape:connector-curvature="0" />
      <path
         id="path17"
         style="font-style:normal;font-variant:normal;font-weight:bold;font-stretch:normal;font-size:3.84455729px;font-family:'Open Sans';-inkscape-font-specification:'Open Sans Bold';letter-spacing:0.5766837px;stroke-width:0.28834185"
         d="m 49.474244,73.92774 q -0.198986,0.103248 -0.414867,0.15581 -0.21588,0.05256 -0.450534,0.05256 -0.700205,0 -1.10944,-0.390463 -0.409235,-0.39234 -0.409235,-1.062509 0,-0.672047 0.409235,-1.06251 0.409235,-0.39234 1.10944,-0.39234 0.234654,0 0.450534,0.05256 0.215881,0.05256 0.414867,0.155809 v 0.580063 q -0.200863,-0.137038 -0.396094,-0.200863 -0.195232,-0.06383 -0.411113,-0.06383 -0.386708,0 -0.608221,0.247794 -0.221512,0.247794 -0.221512,0.68331 0,0.433639 0.221512,0.681433 0.221513,0.247793 0.608221,0.247793 0.215881,0 0.411113,-0.06382 0.195231,-0.06383 0.396094,-0.200863 z"
         inkscape:connector-curvature="0" />
      <path
         id="path19"
         style="font-style:normal;font-variant:normal;font-weight:bold;font-stretch:normal;font-size:3.84455729px;font-family:'Open Sans';-inkscape-font-specification:'Open Sans Bold';letter-spacing:0.5766837px;stroke-width:0.28834185"
         d="m 50.65164,71.278975 h 0.722731 v 2.802698 H 50.65164 Z"
         inkscape:connector-curvature="0" />
      <path
         id="path21"
         style="font-style:normal;font-variant:normal;font-weight:bold;font-stretch:normal;font-size:3.84455729px;font-family:'Open Sans';-inkscape-font-specification:'Open Sans Bold';letter-spacing:0.5766837px;stroke-width:0.28834185"
         d="M 55.298524,71.825248 V 73.5354 h 0.259057 q 0.443025,0 0.675801,-0.219635 0.234653,-0.219636 0.234653,-0.638257 0,-0.416744 -0.232776,-0.634502 -0.232776,-0.217758 -0.677678,-0.217758 z m -0.722732,-0.546273 h 0.762153 q 0.638257,0 0.949876,0.09198 0.313497,0.09011 0.536887,0.307865 0.197109,0.1896 0.292847,0.437394 0.09574,0.247794 0.09574,0.56129 0,0.317251 -0.09574,0.566922 -0.09574,0.247794 -0.292847,0.437394 -0.225267,0.217758 -0.540641,0.309742 -0.315374,0.09011 -0.946122,0.09011 h -0.762153 z"
         inkscape:connector-curvature="0" />
      <path
         id="path23"
         style="font-style:normal;font-variant:normal;font-weight:bold;font-stretch:normal;font-size:3.84455729px;font-family:'Open Sans';-inkscape-font-specification:'Open Sans Bold';letter-spacing:0.5766837px;stroke-width:0.28834185"
         d="m 60.044523,73.571067 h -1.130089 l -0.178337,0.510606 h -0.726486 l 1.038106,-2.802698 h 0.861646 l 1.038106,2.802698 h -0.726486 z m -0.949876,-0.519991 h 0.767786 l -0.382954,-1.115072 z"
         inkscape:connector-curvature="0" />
      <path
         id="path25"
         style="font-style:normal;font-variant:normal;font-weight:bold;font-stretch:normal;font-size:3.84455729px;font-family:'Open Sans';-inkscape-font-specification:'Open Sans Bold';letter-spacing:0.5766837px;stroke-width:0.28834185"
         d="m 63.844403,71.367205 v 0.593203 q -0.230898,-0.103247 -0.450534,-0.15581 -0.219635,-0.05256 -0.414866,-0.05256 -0.259058,0 -0.382954,0.07133 -0.123897,0.07133 -0.123897,0.221512 0,0.112634 0.0826,0.176459 0.08448,0.06195 0.30411,0.107002 l 0.307865,0.06195 q 0.467429,0.09386 0.664538,0.285338 0.197108,0.191477 0.197108,0.544395 0,0.463675 -0.275952,0.690819 -0.274075,0.225267 -0.839119,0.225267 -0.266566,0 -0.535009,-0.05069 -0.268444,-0.05069 -0.536887,-0.150178 v -0.610098 q 0.268443,0.142669 0.518114,0.215881 0.251548,0.07133 0.484324,0.07133 0.236531,0 0.362305,-0.07884 0.125774,-0.07884 0.125774,-0.225267 0,-0.131406 -0.08635,-0.20274 -0.08448,-0.07133 -0.339778,-0.127652 l -0.279707,-0.06195 Q 62.205586,72.825809 62.010354,72.6287 61.817,72.431592 61.817,72.097446 q 0,-0.418622 0.270321,-0.643889 0.27032,-0.225267 0.777171,-0.225267 0.230899,0 0.474938,0.03567 0.244039,0.03379 0.504973,0.103247 z"
         inkscape:connector-curvature="0" />
      <path
         id="path27"
         style="font-style:normal;font-variant:normal;font-weight:bold;font-stretch:normal;font-size:3.84455729px;font-family:'Open Sans';-inkscape-font-specification:'Open Sans Bold';letter-spacing:0.5766837px;stroke-width:0.28834185"
         d="m 65.241436,71.278975 h 0.722731 v 1.068142 h 1.066264 v -1.068142 h 0.722732 v 2.802698 h -0.722732 v -1.188284 h -1.066264 v 1.188284 h -0.722731 z"
         inkscape:connector-curvature="0" />
      <path
         id="path29"
         style="font-style:normal;font-variant:normal;font-weight:bold;font-stretch:normal;font-size:3.84455729px;font-family:'Open Sans';-inkscape-font-specification:'Open Sans Bold';letter-spacing:0.5766837px;stroke-width:0.28834185"
         d="m 70.162019,72.364012 q 0.170827,0 0.259057,-0.07509 0.08823,-0.07509 0.08823,-0.221513 0,-0.144546 -0.08823,-0.219635 -0.08823,-0.07697 -0.259057,-0.07697 H 69.76217 v 0.593204 z m 0.0244,1.225828 q 0.217758,0 0.326637,-0.09198 0.110756,-0.09198 0.110756,-0.27783 0,-0.182091 -0.108879,-0.272197 -0.108879,-0.09198 -0.328514,-0.09198 H 69.76217 v 0.733995 z m 0.672046,-1.00807 q 0.232776,0.06758 0.360427,0.249671 0.127652,0.182091 0.127652,0.446779 0,0.405481 -0.274075,0.604467 -0.274075,0.198986 -0.833488,0.198986 h -1.199547 v -2.802698 h 1.085036 q 0.583817,0 0.844752,0.17646 0.262811,0.176459 0.262811,0.565044 0,0.204618 -0.09574,0.349164 -0.09574,0.142669 -0.27783,0.212127 z"
         inkscape:connector-curvature="0" />
      <path
         id="path31"
         style="font-style:normal;font-variant:normal;font-weight:bold;font-stretch:normal;font-size:3.84455729px;font-family:'Open Sans';-inkscape-font-specification:'Open Sans Bold';letter-spacing:0.5766837px;stroke-width:0.28834185"
         d="m 73.824859,71.752036 q -0.330391,0 -0.512482,0.244039 -0.182091,0.24404 -0.182091,0.687065 0,0.441148 0.182091,0.685187 0.182091,0.244039 0.512482,0.244039 0.332269,0 0.51436,-0.244039 0.182091,-0.244039 0.182091,-0.685187 0,-0.443025 -0.182091,-0.687065 -0.182091,-0.244039 -0.51436,-0.244039 z m 0,-0.523746 q 0.675801,0 1.058755,0.386709 0.382954,0.386708 0.382954,1.068141 0,0.679555 -0.382954,1.066264 -0.382954,0.386708 -1.058755,0.386708 -0.673924,0 -1.058755,-0.386708 -0.382954,-0.386709 -0.382954,-1.066264 0,-0.681433 0.382954,-1.068141 0.384831,-0.386709 1.058755,-0.386709 z"
         inkscape:connector-curvature="0" />
      <path
         id="path33"
         style="font-style:normal;font-variant:normal;font-weight:bold;font-stretch:normal;font-size:3.84455729px;font-family:'Open Sans';-inkscape-font-specification:'Open Sans Bold';letter-spacing:0.5766837px;stroke-width:0.28834185"
         d="m 77.983288,73.571067 h -1.13009 l -0.178336,0.510606 h -0.726486 l 1.038105,-2.802698 h 0.861647 l 1.038105,2.802698 h -0.726486 z m -0.949876,-0.519991 h 0.767785 l -0.382954,-1.115072 z"
         inkscape:connector-curvature="0" />
      <path
         id="path35"
         style="font-style:normal;font-variant:normal;font-weight:bold;font-stretch:normal;font-size:3.84455729px;font-family:'Open Sans';-inkscape-font-specification:'Open Sans Bold';letter-spacing:0.5766837px;stroke-width:0.28834185"
         d="m 80.859573,72.521698 q 0.227144,0 0.32476,-0.08447 0.09949,-0.08447 0.09949,-0.277829 0,-0.191477 -0.09949,-0.274075 -0.09762,-0.0826 -0.32476,-0.0826 h -0.30411 v 0.718977 z m -0.30411,0.499342 v 1.060633 h -0.722732 v -2.802698 h 1.103808 q 0.553782,0 0.810962,0.185846 0.259057,0.185845 0.259057,0.587571 0,0.27783 -0.13516,0.456166 -0.133283,0.178336 -0.403604,0.262811 0.148301,0.03379 0.264689,0.153933 0.118265,0.118265 0.238408,0.360427 l 0.39234,0.795944 H 81.593568 L 81.251913,73.385222 Q 81.148666,73.174973 81.041664,73.098007 80.936539,73.02104 80.76008,73.02104 Z"
         inkscape:connector-curvature="0" />
      <path
         id="path37"
         style="font-style:normal;font-variant:normal;font-weight:bold;font-stretch:normal;font-size:3.84455729px;font-family:'Open Sans';-inkscape-font-specification:'Open Sans Bold';letter-spacing:0.5766837px;stroke-width:0.28834185"
         d="M 84.090653,71.825248 V 73.5354 h 0.259057 q 0.443026,0 0.675801,-0.219635 0.234654,-0.219636 0.234654,-0.638257 0,-0.416744 -0.232776,-0.634502 -0.232776,-0.217758 -0.677679,-0.217758 z m -0.722731,-0.546273 h 0.762153 q 0.638257,0 0.949876,0.09198 0.313497,0.09011 0.536886,0.307865 0.197109,0.1896 0.292848,0.437394 0.09574,0.247794 0.09574,0.56129 0,0.317251 -0.09574,0.566922 -0.09574,0.247794 -0.292848,0.437394 -0.225267,0.217758 -0.54064,0.309742 -0.315374,0.09011 -0.946122,0.09011 h -0.762153 z"
         inkscape:connector-curvature="0" />
    </g>
    <path
       style="fill:#ffffff;stroke-width:0.00049651"
       id="path2"
       d="m 41.277586,78.186968 c -0.179241,-0.179241 -0.32621,-0.328692 -0.32621,-0.331174 0,-0.0025 0.06653,-0.0715 0.147465,-0.15243 l 0.147961,-0.147961 h 0.07348 c 0.147961,0 0.362454,-0.02334 0.532262,-0.0576 0.02185,-0.0045 0.04915,-0.0099 0.06107,-0.01241 0.01192,-0.0025 0.02334,-0.0055 0.02582,-0.0069 0.0025,-0.0015 0.0139,-0.0045 0.02582,-0.007 0.01986,-0.0045 0.07895,-0.01986 0.117177,-0.03078 0.0084,-0.0025 0.02334,-0.0065 0.03227,-0.0089 0.0571,-0.01539 0.220452,-0.07448 0.289964,-0.10526 0.01191,-0.0055 0.02234,-0.0094 0.02383,-0.0094 0.0079,0 0.180235,-0.08391 0.253222,-0.123632 0.05213,-0.0283 0.126611,-0.07199 0.135052,-0.07944 0.0035,-0.003 0.0074,-0.0055 0.0089,-0.0055 0.0045,0 0.181724,-0.120157 0.194136,-0.131576 0.0035,-0.0025 0.01738,-0.0139 0.03178,-0.02483 0.03476,-0.02631 0.106254,-0.08292 0.109233,-0.08639 0.0015,-0.002 0.01837,-0.01638 0.03724,-0.03277 0.03376,-0.0288 0.123135,-0.113205 0.162856,-0.153919 0.05462,-0.05561 0.103275,-0.107744 0.130086,-0.139024 0.01638,-0.01887 0.03078,-0.03575 0.03277,-0.03724 0.0035,-0.003 0.06008,-0.07448 0.08639,-0.109232 0.01092,-0.0144 0.02234,-0.0283 0.02483,-0.03178 0.006,-0.006 0.05809,-0.08143 0.102778,-0.147961 0.01589,-0.02383 0.0288,-0.04568 0.0288,-0.04866 0,-0.0025 0.0025,-0.005 0.005,-0.005 0.003,0 0.005,-0.002 0.005,-0.0045 0,-0.0025 0.01142,-0.02334 0.02532,-0.04618 0.0139,-0.02284 0.03227,-0.05362 0.04071,-0.06852 0.02731,-0.04866 0.112709,-0.220948 0.112709,-0.226906 0,-0.0099 0.007,-0.01093 0.02234,-0.004 0.0084,0.0035 0.02383,0.01043 0.03476,0.0149 0.0288,0.01291 0.07249,0.02383 0.139024,0.03525 0.0432,0.0074 0.112708,0.007 0.185199,-9.78e-4 0.0139,-0.0015 0.02582,-0.002 0.02582,-5.05e-4 0,9.79e-4 -0.0079,0.01986 -0.01787,0.04121 -0.0094,0.02135 -0.01936,0.04369 -0.02135,0.04915 -0.03227,0.07944 -0.13952,0.288971 -0.182717,0.356496 -0.01191,0.01837 -0.02135,0.03426 -0.02135,0.03575 0,9.79e-4 -0.01142,0.01936 -0.02483,0.04071 -0.0139,0.02135 -0.02731,0.0422 -0.02979,0.04618 -0.01539,0.02433 -0.06157,0.09235 -0.06405,0.09434 -0.002,0.0015 -0.0074,0.0094 -0.01241,0.01738 -0.01093,0.01688 -0.06753,0.09285 -0.07249,0.09682 -0.002,0.0015 -0.0084,0.01043 -0.01539,0.02036 -0.01241,0.01837 -0.02234,0.03078 -0.09384,0.115688 -0.0566,0.06753 -0.08739,0.100792 -0.181227,0.194136 -0.09186,0.09186 -0.125121,0.123136 -0.194137,0.181228 -0.08292,0.07001 -0.09732,0.08143 -0.115687,0.09384 -0.0099,0.007 -0.01887,0.01341 -0.02036,0.01539 -0.004,0.005 -0.07994,0.06157 -0.09682,0.07249 -0.0079,0.005 -0.01589,0.01043 -0.01738,0.01241 -0.002,0.0025 -0.07001,0.04866 -0.09434,0.06405 -0.004,0.0025 -0.02483,0.01589 -0.04618,0.02979 -0.02135,0.01341 -0.03972,0.02483 -0.04071,0.02483 -0.0015,0 -0.01787,0.0099 -0.03724,0.02234 -0.01936,0.01241 -0.03575,0.02234 -0.03724,0.02234 -9.79e-4,0 -0.0139,0.007 -0.0283,0.01539 -0.0144,0.0089 -0.06852,0.03724 -0.120653,0.06355 -0.08341,0.0422 -0.116184,0.05809 -0.173779,0.08242 -0.0079,0.0035 -0.03277,0.0139 -0.05462,0.02383 -0.02184,0.0094 -0.06206,0.02582 -0.08937,0.03575 -0.02731,0.0099 -0.06058,0.02234 -0.07448,0.02731 -0.06504,0.02483 -0.225914,0.07299 -0.312804,0.09384 -0.07001,0.01688 -0.08093,0.01936 -0.136541,0.03029 -0.111715,0.02135 -0.127604,0.02433 -0.163849,0.02979 -0.02036,0.003 -0.04916,0.0074 -0.06405,0.01043 -0.0149,0.0025 -0.03525,0.0045 -0.04568,0.0045 -0.0099,0 -0.02184,9.79e-4 -0.02582,0.0025 -0.0045,0.002 0.03923,0.04915 0.133562,0.143492 0.07746,0.07746 0.14101,0.1425 0.14101,0.144982 0,0.006 -0.295425,0.299894 -0.300887,0.299894 -0.0025,0 -0.151437,-0.146968 -0.331174,-0.326705 z"
       inkscape:connector-curvature="0" />
    <path
       style="fill:#ffffff;stroke-width:0.00049651"
       id="path4"
       d="m 39.975727,77.688965 c -0.02433,-0.01092 -0.04915,-0.02184 -0.05462,-0.02433 -0.0055,-0.002 -0.02433,-0.01043 -0.0422,-0.01787 -0.04022,-0.01738 -0.211514,-0.104268 -0.247263,-0.125618 -0.0144,-0.0084 -0.02731,-0.01539 -0.0283,-0.01539 -0.0015,0 -0.01787,-0.0099 -0.03724,-0.02234 -0.01936,-0.01241 -0.03575,-0.02234 -0.03724,-0.02234 -9.79e-4,0 -0.01936,-0.01142 -0.04071,-0.02483 -0.02135,-0.0139 -0.0422,-0.02731 -0.04618,-0.02979 -0.02433,-0.01539 -0.09235,-0.06157 -0.09434,-0.06405 -0.0015,-0.002 -0.0089,-0.0074 -0.01738,-0.01241 -0.01688,-0.01093 -0.09285,-0.06753 -0.09682,-0.07249 -0.0015,-0.002 -0.01043,-0.0084 -0.02036,-0.01539 -0.01837,-0.01241 -0.03277,-0.02383 -0.115687,-0.09384 -0.06902,-0.05809 -0.102282,-0.08937 -0.194137,-0.181228 -0.09384,-0.09334 -0.124625,-0.126611 -0.181227,-0.194137 -0.0715,-0.0849 -0.08143,-0.09732 -0.09384,-0.115687 -0.0069,-0.0099 -0.01341,-0.01887 -0.01539,-0.02036 -0.005,-0.004 -0.06157,-0.07994 -0.07249,-0.09682 -0.005,-0.0079 -0.01043,-0.01589 -0.01241,-0.01738 -0.0025,-0.002 -0.04866,-0.07001 -0.06405,-0.09434 -0.0025,-0.004 -0.01589,-0.02483 -0.02979,-0.04618 -0.01341,-0.02135 -0.02483,-0.03972 -0.02483,-0.04071 0,-0.0015 -0.0099,-0.01787 -0.02234,-0.03724 -0.01241,-0.01936 -0.02234,-0.03575 -0.02234,-0.03724 0,-9.79e-4 -0.007,-0.0139 -0.01539,-0.0283 -0.0089,-0.0144 -0.03724,-0.06852 -0.06355,-0.120652 -0.0422,-0.08342 -0.05759,-0.115688 -0.08242,-0.17378 -0.0035,-0.0079 -0.0139,-0.03277 -0.02383,-0.05462 -0.0094,-0.02184 -0.02582,-0.06206 -0.03575,-0.08937 -0.0099,-0.02731 -0.02234,-0.06058 -0.02731,-0.07448 -0.02483,-0.06504 -0.07299,-0.225914 -0.09384,-0.312803 -0.01688,-0.07001 -0.01936,-0.08093 -0.03029,-0.136542 -0.02135,-0.111715 -0.02433,-0.127604 -0.02979,-0.163849 -0.003,-0.02036 -0.0074,-0.04915 -0.01043,-0.06405 -0.0025,-0.0149 -0.0045,-0.03625 -0.0045,-0.04717 v -0.02036 l -0.140514,0.140514 c -0.07696,0.07696 -0.143492,0.140016 -0.147464,0.140016 -0.0079,0 -0.297908,-0.287977 -0.297908,-0.295922 0,-0.0084 0.651426,-0.65788 0.658376,-0.656391 0.004,9.79e-4 0.07199,0.06653 0.151933,0.146472 l 0.145479,0.144982 -0.002,0.05362 c -0.0045,0.138031 0.02632,0.405652 0.06902,0.597306 0.004,0.01638 0.03525,0.137038 0.04518,0.17378 0.003,0.0094 0.007,0.02433 0.0089,0.03227 0.01589,0.0576 0.07497,0.220452 0.105261,0.288971 0.0055,0.01192 0.0094,0.02234 0.0094,0.02383 0,0.01638 0.125122,0.260669 0.177752,0.347063 0.01142,0.01837 0.02085,0.03575 0.02085,0.03823 0,0.0025 0.0025,0.0045 0.005,0.0045 0.003,0 0.005,0.0025 0.005,0.005 0,0.003 0.01291,0.02483 0.0288,0.04866 0.04469,0.06653 0.09682,0.142003 0.102778,0.147961 0.0025,0.0035 0.0139,0.01738 0.02483,0.03178 0.02632,0.03476 0.08292,0.106253 0.08639,0.109233 0.002,0.0015 0.01638,0.01837 0.03277,0.03724 0.02681,0.03128 0.07547,0.08341 0.130087,0.139024 0.03972,0.04071 0.129093,0.125121 0.162856,0.153919 0.01936,0.01638 0.03575,0.03078 0.03724,0.03277 0.003,0.0035 0.07448,0.06008 0.109233,0.08639 0.0144,0.01093 0.0283,0.02234 0.03178,0.02483 0.01241,0.01142 0.189669,0.131576 0.194137,0.131576 0.0015,0 0.0055,0.0025 0.0089,0.0055 0.01936,0.01688 0.145975,0.08689 0.251732,0.139521 0.03972,0.01936 0.07299,0.03625 0.07398,0.03674 9.79e-4,9.78e-4 -0.0015,0.01142 -0.006,0.02284 -0.02334,0.06355 -0.02979,0.108736 -0.03029,0.200095 0,0.07001 0.002,0.09781 0.0089,0.129093 0.01092,0.04767 0.0149,0.06703 0.01241,0.06703 -9.79e-4,0 -0.02185,-0.0094 -0.04667,-0.02036 z"
       inkscape:connector-curvature="0" />
    <path
       style="fill:#ffffff;stroke-width:0.00049651"
       id="path6"
       d="m 41.084938,77.172591 c -0.03724,-0.002 -0.07398,-0.005 -0.08192,-0.0065 -0.0079,-0.0015 -0.03575,-0.0055 -0.06157,-0.0079 -0.04469,-0.0045 -0.07497,-0.0084 -0.144982,-0.01986 -0.06604,-0.01043 -0.158388,-0.03029 -0.247263,-0.05362 -0.03575,-0.0094 -0.180235,-0.05611 -0.201088,-0.06504 -0.0055,-0.0025 -0.03029,-0.01241 -0.05561,-0.02234 -0.02532,-0.0094 -0.06107,-0.02483 -0.07944,-0.03327 -0.09036,-0.04171 -0.191158,-0.09136 -0.219955,-0.108736 -0.06107,-0.03625 -0.07696,-0.04518 -0.0854,-0.04816 -0.005,-0.0015 -0.0089,-0.0045 -0.0089,-0.007 0,-0.0025 -0.002,-0.0045 -0.005,-0.0045 -0.0045,0 -0.103275,-0.06256 -0.109233,-0.06951 -0.0015,-0.0015 -0.02036,-0.0149 -0.0422,-0.02979 -0.02184,-0.0149 -0.0422,-0.02929 -0.04518,-0.03227 -0.0035,-0.0025 -0.01738,-0.0139 -0.03178,-0.02483 -0.09136,-0.07001 -0.144982,-0.117177 -0.240809,-0.213501 -0.0859,-0.0854 -0.116681,-0.118667 -0.151437,-0.161367 -0.01241,-0.0149 -0.02433,-0.02979 -0.02731,-0.03277 -0.0025,-0.003 -0.01142,-0.0139 -0.01986,-0.02433 -0.0079,-0.01043 -0.01738,-0.02135 -0.01986,-0.02433 -0.003,-0.003 -0.01092,-0.01341 -0.01738,-0.02284 -0.0065,-0.0094 -0.01341,-0.01837 -0.0149,-0.01986 -0.0099,-0.0084 -0.129094,-0.187185 -0.129094,-0.19364 0,-0.003 -0.002,-0.005 -0.005,-0.005 -0.0025,0 -0.005,-0.0025 -0.005,-0.005 0,-0.003 -0.0055,-0.01341 -0.01192,-0.02383 -0.04965,-0.07597 -0.144982,-0.273579 -0.186689,-0.385791 -0.01241,-0.03327 -0.01589,-0.0432 -0.02483,-0.06455 -0.02532,-0.06306 -0.072,-0.231872 -0.09334,-0.340112 -0.003,-0.0149 -0.0079,-0.03823 -0.01092,-0.05213 -0.01241,-0.06058 -0.02085,-0.120653 -0.03476,-0.251732 -0.0065,-0.06206 -0.0065,-0.384301 0,-0.44289 0.01291,-0.117177 0.01638,-0.143492 0.02582,-0.196619 0.0099,-0.05611 0.01241,-0.06951 0.02334,-0.124129 0.02234,-0.112212 0.071,-0.278544 0.102281,-0.350042 0.0035,-0.0079 0.01043,-0.02483 0.0149,-0.03724 0.04518,-0.11966 0.142997,-0.320748 0.18669,-0.383309 0.0055,-0.0069 0.0094,-0.01539 0.0094,-0.01837 0,-0.003 0.0025,-0.0055 0.005,-0.0055 0.003,0 0.005,-0.0025 0.005,-0.005 0,-0.007 0.118667,-0.184703 0.129093,-0.19364 0.0015,-0.0015 0.0084,-0.01043 0.0149,-0.01986 0.0065,-0.0094 0.0144,-0.01986 0.01738,-0.02284 0.0025,-0.003 0.01192,-0.0139 0.01986,-0.02433 0.0571,-0.07299 0.09732,-0.117674 0.196123,-0.215983 0.100792,-0.101289 0.153423,-0.147465 0.243292,-0.215984 0.0144,-0.01092 0.0283,-0.02234 0.03178,-0.02483 0.003,-0.003 0.02334,-0.01738 0.04518,-0.03227 0.02185,-0.0149 0.04071,-0.0283 0.0422,-0.02979 0.006,-0.0069 0.104764,-0.06951 0.109233,-0.06951 0.003,0 0.005,-0.002 0.005,-0.0045 0,-0.0025 0.004,-0.0055 0.0089,-0.007 0.0089,-0.0035 0.03972,-0.02085 0.07547,-0.04369 0.02681,-0.01638 0.209528,-0.105261 0.263152,-0.127604 0.188675,-0.07746 0.374867,-0.130583 0.57099,-0.161864 0.0288,-0.0045 0.06455,-0.01043 0.07944,-0.01291 0.0854,-0.0149 0.191158,-0.02036 0.37735,-0.01936 0.104764,5.04e-4 0.19662,0.003 0.20357,0.005 0.007,0.002 0.03476,0.0065 0.06206,0.0094 0.09881,0.01093 0.197612,0.02781 0.292943,0.04965 0.0139,0.0035 0.03277,0.0079 0.0422,0.0099 0.03674,0.0084 0.09682,0.02582 0.13108,0.03773 0.01936,0.007 0.04419,0.0144 0.05511,0.01738 0.01092,0.0025 0.02681,0.0079 0.03476,0.01142 0.01986,0.0089 0.03376,0.0149 0.06951,0.0278 0.01638,0.006 0.03674,0.0139 0.04469,0.01738 0.0084,0.004 0.02731,0.01142 0.0422,0.01738 0.04022,0.01589 0.203571,0.09682 0.246767,0.122142 0.02036,0.01192 0.03823,0.02185 0.03972,0.02185 9.79e-4,0 0.01192,0.007 0.02383,0.0149 0.01192,0.0084 0.02284,0.0149 0.02433,0.0149 0.003,0 0.102282,0.06455 0.107247,0.06951 0.0015,0.0015 0.01688,0.01241 0.03476,0.02433 0.01787,0.01241 0.03327,0.02383 0.03476,0.02532 0.0015,0.0015 0.01043,0.0084 0.01986,0.0149 0.0094,0.0065 0.02433,0.01738 0.03277,0.02433 0.0084,0.007 0.01986,0.01638 0.02483,0.02036 0.113205,0.08987 0.235843,0.20506 0.311313,0.291949 0.01986,0.02284 0.04121,0.04767 0.04816,0.05511 0.01341,0.0144 0.03277,0.03774 0.05064,0.06157 0.0065,0.0084 0.02383,0.03078 0.03873,0.05015 0.01539,0.01936 0.03773,0.04965 0.04965,0.06753 0.01241,0.01787 0.02383,0.03327 0.02532,0.03476 0.0015,0.0015 0.006,0.0079 0.0094,0.0144 0.0035,0.0069 0.0084,0.0149 0.01043,0.01738 0.0099,0.01191 0.04916,0.07249 0.04916,0.07547 0,0.0015 0.0045,0.0089 0.0094,0.01638 0.0055,0.0074 0.01688,0.02681 0.02582,0.0427 0.0089,0.01638 0.02135,0.03873 0.02781,0.04965 0.01936,0.03327 0.110722,0.221445 0.110722,0.228396 0,9.79e-4 0.0055,0.0139 0.01192,0.0283 0.02334,0.05213 0.06703,0.175269 0.08689,0.247264 0.0035,0.01241 0.0084,0.02731 0.01092,0.03327 0.01241,0.03227 0.05313,0.219459 0.06405,0.294433 0.02582,0.177255 0.02731,0.198605 0.02731,0.409623 0,0.190661 -0.002,0.22641 -0.01787,0.345077 -0.0099,0.07448 -0.0278,0.175766 -0.03922,0.223431 -0.0025,0.0094 -0.0069,0.0288 -0.0099,0.0422 -0.0074,0.03376 -0.0149,0.06107 -0.02234,0.08441 -0.0035,0.01092 -0.01341,0.0432 -0.02234,0.07199 -0.0084,0.0288 -0.02036,0.06455 -0.02532,0.07994 -0.005,0.0149 -0.0094,0.03128 -0.0094,0.03575 0,0.0045 -0.0015,0.0084 -0.004,0.0084 -0.002,0 -0.0089,0.0139 -0.0149,0.03128 -0.0065,0.01688 -0.01738,0.0427 -0.02383,0.0571 -0.0065,0.0144 -0.01191,0.02731 -0.01191,0.0283 0,0.007 -0.09136,0.19513 -0.110722,0.228396 -0.0065,0.01092 -0.01887,0.03327 -0.02781,0.04965 -0.0089,0.01589 -0.02036,0.03525 -0.02582,0.0427 -0.005,0.0074 -0.0094,0.0149 -0.0094,0.01638 0,0.0025 -0.05114,0.08044 -0.06852,0.104764 -0.002,0.003 -0.01341,0.01936 -0.02582,0.03724 -0.01787,0.02681 -0.05809,0.07994 -0.0859,0.114198 -0.0035,0.004 -0.0149,0.01887 -0.02582,0.03227 -0.01092,0.0139 -0.02681,0.03277 -0.03525,0.0422 -0.0089,0.0094 -0.0278,0.03078 -0.04171,0.04717 -0.06604,0.07497 -0.189668,0.193144 -0.273082,0.26067 -0.0149,0.01241 -0.0283,0.02334 -0.02979,0.02483 -0.0015,0.0015 -0.02036,0.01589 -0.0422,0.03227 -0.02184,0.01638 -0.04071,0.03078 -0.0422,0.03277 -0.0015,0.0015 -0.01688,0.01241 -0.03476,0.02483 -0.01787,0.01192 -0.03426,0.02333 -0.03724,0.02582 -0.01589,0.01192 -0.101785,0.06802 -0.104267,0.06802 -0.002,0 -0.01291,0.007 -0.02483,0.0149 -0.01191,0.0084 -0.02284,0.0149 -0.02433,0.0149 -0.0015,0 -0.01986,0.0099 -0.04022,0.02234 -0.02085,0.01241 -0.07497,0.04022 -0.120653,0.06256 -0.04568,0.02185 -0.08639,0.04171 -0.09036,0.04369 -0.01291,0.007 -0.09086,0.03873 -0.121646,0.05015 -0.01638,0.006 -0.03426,0.01291 -0.03972,0.0149 -0.01837,0.0079 -0.143492,0.04915 -0.173779,0.0571 -0.07994,0.02185 -0.191158,0.04766 -0.244285,0.0566 -0.06703,0.01142 -0.08987,0.01539 -0.1281,0.01986 -0.02185,0.003 -0.05958,0.0079 -0.08441,0.01092 -0.05462,0.0074 -0.317768,0.01291 -0.41012,0.0089 z m 0.365434,-0.342097 c 0.08888,-0.0099 0.142996,-0.01787 0.211019,-0.03029 0.06951,-0.01341 0.168318,-0.03773 0.220948,-0.05462 0.02483,-0.0079 0.05263,-0.01688 0.06206,-0.01986 0.0094,-0.003 0.02185,-0.0069 0.02731,-0.0094 0.0055,-0.0025 0.01986,-0.0079 0.03227,-0.01192 0.05958,-0.01887 0.112212,-0.04171 0.225913,-0.09781 0.08987,-0.04419 0.11817,-0.05958 0.15243,-0.08192 0.01043,-0.0065 0.01986,-0.01192 0.02135,-0.01192 0.0015,0 0.0055,-0.002 0.0089,-0.005 0.0035,-0.0025 0.03078,-0.02085 0.06058,-0.04121 0.0715,-0.04717 0.103771,-0.06951 0.10675,-0.07299 0.0015,-0.0015 0.01043,-0.0084 0.02085,-0.01589 0.0099,-0.0074 0.02085,-0.01688 0.02483,-0.02036 0.0035,-0.0035 0.01092,-0.0094 0.01688,-0.01341 0.01043,-0.0074 0.05213,-0.0432 0.09632,-0.08192 0.03823,-0.03426 0.144982,-0.142499 0.176262,-0.178745 0.01638,-0.01936 0.03078,-0.03575 0.03227,-0.03724 0.0015,-0.0015 0.01192,-0.01341 0.02234,-0.02731 0.01092,-0.01341 0.02085,-0.02582 0.02234,-0.02731 0.0015,-0.0015 0.01043,-0.01241 0.01986,-0.02483 0.0094,-0.01241 0.01837,-0.02334 0.02036,-0.02483 0.0015,-0.0015 0.02681,-0.03823 0.05611,-0.08192 0.02929,-0.04369 0.05462,-0.08192 0.0566,-0.0849 0.004,-0.0055 0.01142,-0.01887 0.02582,-0.04469 0.0055,-0.0089 0.0149,-0.02532 0.02184,-0.03624 0.01142,-0.01738 0.07944,-0.155409 0.09881,-0.199102 0.004,-0.0094 0.01192,-0.02731 0.01738,-0.03972 0.01142,-0.02582 0.02731,-0.06802 0.03625,-0.09682 0.0035,-0.01093 0.0079,-0.02185 0.0094,-0.02483 0.002,-0.0025 0.006,-0.0149 0.0099,-0.02731 0.0035,-0.01241 0.0099,-0.03476 0.0149,-0.04965 0.005,-0.0149 0.01142,-0.03724 0.0149,-0.04965 0.0035,-0.01241 0.0089,-0.03227 0.01241,-0.04469 0.01887,-0.06604 0.03922,-0.170304 0.05164,-0.263152 0.0149,-0.111715 0.01738,-0.151933 0.01738,-0.297908 0,-0.145975 -0.0025,-0.186193 -0.01738,-0.297908 -0.01241,-0.09384 -0.03277,-0.19662 -0.05164,-0.263152 -0.0035,-0.01241 -0.0089,-0.03227 -0.01241,-0.04469 -0.0035,-0.01241 -0.0099,-0.03476 -0.0149,-0.04965 -0.005,-0.0149 -0.01142,-0.03724 -0.0149,-0.04965 -0.004,-0.01241 -0.0079,-0.02433 -0.0099,-0.02731 -0.0015,-0.0025 -0.006,-0.0139 -0.0094,-0.02483 -0.0074,-0.02433 -0.02433,-0.06901 -0.03277,-0.08937 -0.02979,-0.06951 -0.102779,-0.219956 -0.11966,-0.246271 -0.007,-0.01092 -0.01638,-0.02731 -0.02185,-0.03625 -0.0144,-0.02582 -0.02184,-0.03922 -0.02582,-0.04469 -0.002,-0.003 -0.02731,-0.04121 -0.0566,-0.0849 -0.02929,-0.04369 -0.05462,-0.08043 -0.05611,-0.08192 -0.002,-0.0015 -0.01092,-0.01241 -0.02036,-0.02483 -0.0094,-0.01241 -0.01837,-0.02334 -0.01986,-0.02483 -0.0015,-0.0015 -0.01142,-0.01341 -0.02234,-0.02731 -0.01043,-0.01341 -0.02085,-0.02582 -0.02234,-0.02731 -0.0015,-0.0015 -0.01589,-0.01787 -0.03227,-0.03724 -0.03823,-0.04469 -0.143492,-0.149948 -0.190661,-0.191158 -0.02036,-0.01787 -0.04071,-0.03575 -0.04518,-0.03972 -0.0045,-0.0045 -0.01688,-0.0144 -0.02731,-0.02234 -0.01092,-0.0084 -0.02284,-0.01787 -0.02632,-0.02135 -0.004,-0.0035 -0.0149,-0.01241 -0.02483,-0.01986 -0.01043,-0.0074 -0.01936,-0.0149 -0.02085,-0.01638 -0.0025,-0.0035 -0.0079,-0.0069 -0.0998,-0.06802 -0.03376,-0.02234 -0.06405,-0.0432 -0.06752,-0.04568 -0.0035,-0.003 -0.0074,-0.005 -0.0094,-0.005 -0.0015,0 -0.0099,-0.005 -0.01837,-0.01092 -0.02532,-0.01837 -0.20506,-0.110226 -0.264145,-0.135548 -0.04071,-0.01787 -0.05015,-0.02135 -0.07696,-0.03128 -0.0149,-0.0055 -0.03625,-0.01291 -0.04717,-0.01638 -0.01092,-0.0035 -0.02184,-0.0079 -0.02483,-0.0094 -0.0025,-0.002 -0.0149,-0.006 -0.02731,-0.0094 -0.01241,-0.0035 -0.03029,-0.0094 -0.03972,-0.01341 -0.03823,-0.0144 -0.161863,-0.04568 -0.243291,-0.06107 -0.155409,-0.02929 -0.24776,-0.03724 -0.424519,-0.03674 -0.207543,0 -0.327699,0.0139 -0.533752,0.06107 -0.07299,0.01688 -0.226907,0.06653 -0.305356,0.0993 -0.0055,0.0025 -0.01986,0.0084 -0.03227,0.01341 -0.05263,0.02135 -0.243292,0.119163 -0.271593,0.13952 -0.0084,0.006 -0.01688,0.01092 -0.01887,0.01092 -0.0035,0 -0.163352,0.106751 -0.17229,0.115688 -0.0035,0.0035 -0.01986,0.01589 -0.03625,0.0283 -0.03476,0.02582 -0.03426,0.02532 -0.121646,0.103275 -0.07597,0.06753 -0.129093,0.121149 -0.188675,0.189668 -0.02234,0.02582 -0.04618,0.05313 -0.05263,0.06058 -0.0065,0.0074 -0.01192,0.01589 -0.01192,0.01837 0,0.0025 -0.0015,0.0055 -0.004,0.0065 -0.002,9.79e-4 -0.01142,0.01142 -0.02085,0.02383 -0.0094,0.01241 -0.02036,0.02582 -0.02433,0.02979 -0.0099,0.0099 -0.125618,0.185696 -0.14101,0.213501 -0.03227,0.05958 -0.04369,0.08044 -0.06703,0.126611 -0.02483,0.04915 -0.05561,0.114694 -0.05561,0.119163 0,0.0015 -0.0045,0.01191 -0.0094,0.02383 -0.0094,0.02085 -0.03873,0.09781 -0.05511,0.144982 -0.01986,0.0571 -0.04965,0.168318 -0.06405,0.238326 -0.0035,0.01638 -0.0079,0.03873 -0.01043,0.04965 -0.0025,0.01092 -0.0065,0.03575 -0.0094,0.05462 -0.003,0.01936 -0.0084,0.05611 -0.01291,0.08192 -0.02433,0.154912 -0.02383,0.3987 5.04e-4,0.566025 0.01092,0.07348 0.01688,0.113702 0.02185,0.136541 0.0025,0.01093 0.0069,0.03327 0.01043,0.04965 0.0144,0.07001 0.04419,0.181228 0.06405,0.238327 0.01638,0.04717 0.04568,0.124128 0.05511,0.144982 0.005,0.01192 0.0094,0.02234 0.0094,0.02383 0,0.0045 0.03078,0.07001 0.05561,0.119163 0.02334,0.04618 0.03476,0.06703 0.06703,0.126611 0.01539,0.02781 0.13108,0.20357 0.14101,0.213501 0.004,0.004 0.0149,0.01738 0.02433,0.02979 0.0094,0.01241 0.01837,0.02334 0.01986,0.02483 0.0015,0.0015 0.01043,0.01241 0.01986,0.02483 0.02979,0.03873 0.11668,0.134555 0.162359,0.179241 0.04171,0.04071 0.05263,0.05114 0.125618,0.113702 0.01738,0.0149 0.03376,0.02979 0.03674,0.03227 0.003,0.003 0.01887,0.01539 0.03525,0.02731 0.01638,0.01241 0.03078,0.02383 0.03227,0.02532 0.0035,0.004 0.17229,0.118667 0.174773,0.118667 0.0015,0 0.02284,0.01241 0.04767,0.02731 0.03724,0.02234 0.213998,0.111219 0.251733,0.126611 0.06057,0.02433 0.115687,0.04469 0.121645,0.04469 0.0045,0 0.0099,0.002 0.01241,0.004 0.003,0.0025 0.0149,0.007 0.02731,0.01092 0.01241,0.0035 0.03426,0.01043 0.04866,0.01539 0.02582,0.0094 0.08739,0.02681 0.120157,0.03426 0.151436,0.03476 0.267124,0.05213 0.399693,0.05958 0.08143,0.005 0.283509,0.002 0.347559,-0.005 z"
       inkscape:connector-curvature="0" />
    <path
       style="fill:#ffffff;stroke-width:0.00049651"
       id="path8"
       d="m 41.51045,75.928329 c -0.01043,-0.02781 -0.03674,-0.09881 -0.0427,-0.113205 -0.002,-0.0055 -0.0065,-0.01787 -0.0099,-0.02731 -0.0035,-0.0094 -0.0084,-0.02284 -0.01093,-0.02979 -0.0074,-0.01738 -0.01192,-0.02929 -0.01887,-0.04965 -0.0035,-0.0094 -0.0089,-0.02383 -0.01241,-0.03227 -0.0035,-0.0079 -0.01043,-0.02731 -0.01638,-0.0422 -0.0055,-0.0149 -0.01688,-0.04618 -0.02582,-0.06951 -0.0089,-0.02334 -0.02036,-0.05462 -0.02582,-0.06951 -0.0055,-0.0149 -0.01241,-0.03327 -0.01539,-0.04022 l -0.0055,-0.01341 -0.08441,-0.0025 c -0.04667,-0.002 -0.09632,-0.005 -0.110722,-0.0074 -0.02334,-0.0035 -0.02632,-0.003 -0.03029,0.006 -0.02086,0.04419 -0.03575,0.07746 -0.03575,0.07895 0,0.0015 -0.0079,0.01986 -0.01787,0.04171 -0.03773,0.08192 -0.04568,0.0993 -0.06107,0.131576 -0.0084,0.01837 -0.01539,0.03426 -0.01539,0.03525 0,0.0015 -0.0089,0.02234 -0.01986,0.04667 -0.01142,0.02383 -0.02234,0.04816 -0.02483,0.05362 -0.02284,0.05213 -0.05114,0.106751 -0.05412,0.106751 -0.0025,0 -0.02532,-0.0099 -0.05064,-0.02135 -0.07845,-0.03625 -0.123135,-0.0566 -0.158388,-0.0715 -0.02036,-0.0089 -0.06008,-0.02731 -0.120652,-0.05561 -0.02383,-0.01092 -0.04568,-0.02036 -0.04866,-0.02036 -0.0074,0 -0.003,-0.02234 0.01093,-0.05313 0.006,-0.01291 0.0149,-0.03376 0.02036,-0.04618 0.02383,-0.05263 0.03575,-0.07895 0.05114,-0.111716 0.0089,-0.01887 0.01986,-0.04369 0.02483,-0.05462 0.005,-0.01092 0.0139,-0.03078 0.01986,-0.04469 0.0065,-0.01341 0.01539,-0.03376 0.01986,-0.04469 0.005,-0.01092 0.01887,-0.04121 0.03078,-0.06703 0.01192,-0.02582 0.02383,-0.05164 0.02632,-0.0571 0.002,-0.0055 0.0074,-0.01787 0.01142,-0.02731 l 0.0079,-0.01688 -0.03575,-0.03525 c -0.01986,-0.01887 -0.05114,-0.05412 -0.07001,-0.07795 -0.01837,-0.02433 -0.03575,-0.04369 -0.03823,-0.04369 -0.004,0 -0.03327,0.01043 -0.09583,0.03525 -0.01341,0.005 -0.02632,0.0094 -0.0283,0.0094 -0.0025,0 -0.0139,0.004 -0.02582,0.0094 -0.01142,0.005 -0.0288,0.01191 -0.03823,0.01539 -0.0094,0.0035 -0.02184,0.0079 -0.02731,0.0099 -0.0055,0.002 -0.01787,0.0065 -0.02731,0.0099 -0.0094,0.0035 -0.02383,0.0089 -0.03227,0.01241 -0.0144,0.0065 -0.07398,0.02929 -0.124128,0.04717 -0.01341,0.005 -0.0427,0.01589 -0.06455,0.02433 -0.05561,0.02135 -0.071,0.02383 -0.07497,0.01241 -0.003,-0.01043 -0.03029,-0.08242 -0.03674,-0.09881 -0.002,-0.0055 -0.0065,-0.01787 -0.0099,-0.02731 -0.0074,-0.02085 -0.0144,-0.03923 -0.02036,-0.05065 -0.0025,-0.005 -0.0045,-0.01341 -0.0045,-0.01837 0,-0.0055 -0.002,-0.01092 -0.0045,-0.01241 -0.002,-0.0015 -0.0079,-0.01341 -0.01241,-0.02632 -0.02036,-0.05561 -0.02731,-0.07547 -0.03972,-0.107247 -0.01638,-0.04171 -0.01589,-0.04717 9.79e-4,-0.05412 0.0074,-0.003 0.02036,-0.0079 0.0283,-0.01192 0.0139,-0.006 0.06802,-0.02632 0.124129,-0.04667 0.07249,-0.02632 0.110226,-0.04071 0.119163,-0.04419 0.02483,-0.01092 0.06355,-0.02582 0.109233,-0.0427 0.02731,-0.0099 0.06107,-0.02234 0.07448,-0.02731 0.0139,-0.005 0.03525,-0.01291 0.04816,-0.01738 l 0.02334,-0.0084 -9.79e-4,-0.05064 c -5.04e-4,-0.02731 9.79e-4,-0.07299 0.0035,-0.100792 0.0035,-0.04171 0.003,-0.05114 -0.0025,-0.05114 -0.004,0 -0.02234,-0.0074 -0.04171,-0.01688 -0.01887,-0.0094 -0.04568,-0.02184 -0.05958,-0.0278 -0.01341,-0.0065 -0.03575,-0.01638 -0.04965,-0.02234 -0.01341,-0.0065 -0.03575,-0.01638 -0.04965,-0.02234 -0.0288,-0.01241 -0.06604,-0.02979 -0.128101,-0.05909 -0.02383,-0.01092 -0.04419,-0.02036 -0.04568,-0.02036 -9.79e-4,0 -0.0144,-0.0055 -0.02979,-0.01241 -0.0149,-0.007 -0.04022,-0.01837 -0.05561,-0.02532 -0.05561,-0.02483 -0.06107,-0.02781 -0.06107,-0.03525 0,-0.0079 0.0055,-0.02184 0.03227,-0.07845 0.0089,-0.01887 0.01936,-0.0427 0.02383,-0.05213 0.0045,-0.0094 0.01589,-0.03525 0.02582,-0.0571 0.0099,-0.02184 0.01986,-0.04419 0.02185,-0.04965 0.0025,-0.0055 0.01241,-0.02681 0.02135,-0.04717 0.0094,-0.02036 0.02383,-0.05114 0.03128,-0.06802 0.0139,-0.03128 0.01986,-0.03525 0.03625,-0.02681 0.01539,0.0084 0.07497,0.03525 0.07746,0.03525 0.0015,0 0.0288,0.01241 0.06107,0.02731 0.03227,0.01539 0.06306,0.02979 0.06852,0.03178 0.0055,0.0025 0.02483,0.01142 0.0432,0.01986 0.01837,0.0084 0.03426,0.01539 0.03525,0.01539 0.0025,0 0.0576,0.02483 0.120156,0.05462 0.107247,0.05065 0.101785,0.04965 0.127604,0.02135 0.03674,-0.04071 0.07895,-0.08043 0.108737,-0.103771 l 0.01341,-0.0099 -0.0149,-0.03972 c -0.0079,-0.02135 -0.01936,-0.05164 -0.02483,-0.06653 -0.0055,-0.0149 -0.01936,-0.05164 -0.03128,-0.08192 -0.01192,-0.02979 -0.03327,-0.0859 -0.04717,-0.124128 -0.0139,-0.03823 -0.03029,-0.08192 -0.03575,-0.09682 -0.0055,-0.0149 -0.01738,-0.04618 -0.02681,-0.06951 -0.01887,-0.04717 -0.02085,-0.06355 -0.0079,-0.06753 0.0089,-0.003 0.08143,-0.03029 0.09781,-0.03674 0.0055,-0.002 0.01787,-0.0065 0.02731,-0.0099 0.0094,-0.0035 0.02234,-0.0079 0.0288,-0.01043 0.006,-0.0025 0.01589,-0.0065 0.02234,-0.0089 0.006,-0.0025 0.01887,-0.007 0.0283,-0.01043 0.01986,-0.007 0.03078,-0.01092 0.05213,-0.01986 0.03873,-0.01589 0.118667,-0.04469 0.125122,-0.04469 0.0069,0 0.0139,0.0139 0.03128,0.06455 0.0035,0.0094 0.0089,0.02433 0.01241,0.03227 0.0035,0.0084 0.01341,0.03376 0.02234,0.0571 0.0084,0.02334 0.01986,0.05313 0.02532,0.06653 0.005,0.01341 0.0094,0.02632 0.0094,0.0283 0,0.0025 0.004,0.0139 0.0094,0.02582 0.005,0.01142 0.01191,0.0288 0.01539,0.03823 0.0065,0.01837 0.007,0.01986 0.02632,0.06951 0.0069,0.01787 0.01986,0.05114 0.0283,0.07448 0.0084,0.02334 0.01787,0.04816 0.02085,0.05561 0.005,0.01341 0.006,0.0139 0.03327,0.01043 0.03823,-0.0045 0.0998,-0.0045 0.146968,0 l 0.04022,0.0035 0.01638,-0.03575 c 0.0089,-0.01986 0.02284,-0.04965 0.03029,-0.06604 0.02234,-0.04816 0.03972,-0.08689 0.03972,-0.08937 0,-0.0015 0.0089,-0.02185 0.02036,-0.04568 0.03674,-0.07895 0.04816,-0.102778 0.05909,-0.1281 0.006,-0.01341 0.01589,-0.03575 0.02234,-0.04965 0.006,-0.01341 0.01589,-0.03575 0.02234,-0.04965 0.01589,-0.03674 0.01787,-0.03972 0.02582,-0.04121 0.0045,-9.79e-4 0.02731,0.0079 0.05164,0.01936 0.02433,0.01142 0.05313,0.02433 0.06405,0.02929 0.02632,0.01142 0.06455,0.0288 0.08937,0.03972 0.08788,0.04071 0.155905,0.0715 0.165339,0.07497 0.01837,0.007 0.01688,0.01341 -0.02979,0.113701 -0.01837,0.03972 -0.03029,0.06653 -0.04022,0.08937 -0.0045,0.0094 -0.01589,0.03525 -0.02582,0.0571 -0.0099,0.02184 -0.01986,0.04419 -0.02184,0.04965 -0.0025,0.0055 -0.01241,0.02681 -0.02185,0.04717 -0.0094,0.02036 -0.02085,0.04518 -0.02483,0.05462 -0.0045,0.0094 -0.01589,0.03476 -0.02582,0.0566 l -0.01787,0.03922 0.01341,0.01043 c 0.05064,0.03923 0.08689,0.07597 0.132569,0.133066 0.01291,0.01638 0.0149,0.01638 0.04618,0.0045 0.01341,-0.0055 0.03674,-0.0139 0.05164,-0.01936 0.0571,-0.02085 0.112212,-0.04171 0.126611,-0.04816 0.0084,-0.0035 0.02284,-0.0089 0.03227,-0.01241 0.02135,-0.0074 0.03923,-0.0144 0.05064,-0.02036 0.005,-0.0025 0.01291,-0.0045 0.01787,-0.0045 0.005,0 0.01093,-0.002 0.0139,-0.0045 0.0025,-0.0025 0.0144,-0.0079 0.02681,-0.01192 0.03525,-0.01241 0.0998,-0.03625 0.121149,-0.04518 0.01043,-0.0045 0.02185,-0.0079 0.02532,-0.0079 0.0055,0 0.01291,0.01291 0.02234,0.03724 0.0025,0.0055 0.0094,0.02433 0.01638,0.0422 0.0069,0.01787 0.01986,0.05114 0.0283,0.07448 0.0089,0.02334 0.01986,0.05313 0.02532,0.06653 0.005,0.01341 0.0094,0.02632 0.0094,0.0283 0,0.0025 0.004,0.0139 0.0094,0.02582 0.005,0.01142 0.01192,0.0288 0.01539,0.03823 0.0035,0.0094 0.0079,0.02185 0.01043,0.02731 0.01192,0.0288 0.01936,0.04915 0.01936,0.05412 0,0.0035 -0.0084,0.0089 -0.01837,0.01241 -0.01589,0.005 -0.04022,0.0144 -0.11817,0.04518 -0.0055,0.002 -0.01787,0.0065 -0.02731,0.0099 -0.0094,0.0035 -0.02184,0.0079 -0.02731,0.0099 -0.0055,0.002 -0.01787,0.0065 -0.02731,0.0099 -0.0094,0.0035 -0.02234,0.0079 -0.0283,0.01043 -0.0065,0.0025 -0.01638,0.0065 -0.02234,0.0089 -0.0065,0.0025 -0.02483,0.0094 -0.04121,0.01539 -0.01638,0.006 -0.03972,0.0149 -0.05213,0.01986 -0.02483,0.0099 -0.113205,0.0427 -0.123135,0.04568 -0.005,0.0015 -0.007,0.02433 -0.0079,0.103275 -9.79e-4,0.05611 -0.003,0.110723 -0.005,0.121646 l -0.0035,0.01986 0.0288,0.01341 c 0.01589,0.0074 0.04022,0.01837 0.05362,0.02433 0.0139,0.006 0.04121,0.01837 0.06057,0.02731 0.01986,0.0094 0.03724,0.01688 0.03873,0.01688 0.0015,0 0.02334,0.0099 0.04866,0.02185 0.02483,0.01192 0.0571,0.02681 0.07051,0.03277 0.0139,0.006 0.03873,0.01738 0.05611,0.02532 0.01738,0.0079 0.03227,0.0144 0.03327,0.0144 9.79e-4,0 0.01887,0.0079 0.03923,0.01738 0.02085,0.0094 0.04022,0.01738 0.0427,0.01738 0.0089,0 0.0055,0.02731 -0.007,0.05263 -0.01142,0.02433 -0.02731,0.05859 -0.04121,0.09136 -0.0084,0.01986 -0.02234,0.04965 -0.04767,0.104268 -0.0094,0.02036 -0.02234,0.04866 -0.0283,0.06206 -0.006,0.0139 -0.01638,0.03674 -0.02284,0.05114 -0.0065,0.0144 -0.01192,0.0283 -0.01192,0.03078 0,0.01192 -0.02483,0.0025 -0.141506,-0.05213 -0.08838,-0.04121 -0.101289,-0.04717 -0.103275,-0.04717 -0.0015,0 -0.02234,-0.0089 -0.04667,-0.02036 -0.02383,-0.01092 -0.05015,-0.02284 -0.05859,-0.02681 -0.0079,-0.0035 -0.03625,-0.01638 -0.06207,-0.0283 -0.02582,-0.01241 -0.05412,-0.02483 -0.06306,-0.0283 l -0.01539,-0.0065 -0.05164,0.05164 c -0.0283,0.0283 -0.06008,0.05809 -0.071,0.06604 -0.01092,0.0084 -0.02433,0.01887 -0.02929,0.02334 -0.0055,0.005 -0.0139,0.0099 -0.01887,0.01192 -0.0094,0.003 -0.01191,0.0094 -0.0045,0.0139 0.002,0.0015 0.0079,0.01341 0.01241,0.02632 0.02036,0.05611 0.02781,0.07597 0.0427,0.115688 0.0089,0.02334 0.02036,0.05462 0.02582,0.06951 0.01341,0.03724 0.03327,0.08838 0.0422,0.108736 0.004,0.0089 0.0094,0.02234 0.01142,0.02979 0.004,0.01192 0.02135,0.06008 0.0427,0.115687 0.0089,0.02334 0.0089,0.02383 -5.04e-4,0.03078 -0.0055,0.004 -0.03227,0.01539 -0.05958,0.02532 -0.09086,0.03327 -0.18371,0.06753 -0.19364,0.072 -0.06753,0.0278 -0.126114,0.04965 -0.134555,0.04965 -0.003,0 -0.0094,-0.01043 -0.0139,-0.02334 z m -0.181723,-0.828185 c 0.04617,-0.007 0.07199,-0.01241 0.09185,-0.01986 0.02483,-0.0089 0.120652,-0.05759 0.129093,-0.06554 0.0055,-0.005 0.01787,-0.01489 0.02731,-0.02184 0.02234,-0.01688 0.0571,-0.05164 0.07398,-0.07398 0.007,-0.0094 0.01688,-0.02184 0.02185,-0.02731 0.0079,-0.0089 0.0571,-0.105758 0.06554,-0.129093 0.0084,-0.02383 0.01688,-0.06306 0.02234,-0.107247 0.0084,-0.06157 9.79e-4,-0.125122 -0.02383,-0.205557 -0.01241,-0.04071 -0.06057,-0.124625 -0.09285,-0.161367 -0.06008,-0.06901 -0.10675,-0.101785 -0.207046,-0.145975 -0.0715,-0.03178 -0.200591,-0.03972 -0.284502,-0.01837 -0.04617,0.01192 -0.133065,0.05164 -0.174773,0.08044 -0.03029,0.02085 -0.09434,0.0849 -0.11519,0.115688 -0.0288,0.04121 -0.06852,0.1281 -0.08044,0.174276 -0.02135,0.08441 -0.01341,0.212508 0.01837,0.284502 0.04419,0.100296 0.08093,0.15243 0.148458,0.209529 0.05412,0.04618 0.138031,0.08788 0.208536,0.103771 0.06951,0.01638 0.106253,0.01787 0.171297,0.0079 z"
       inkscape:connector-curvature="0" />
    <path
       style="fill:#ffffff;stroke-width:0.00049651"
       id="path10"
       d="m 44.36143,74.75904 -0.147961,-0.148954 v -0.06703 c 0,-0.06405 -0.0035,-0.12115 -0.01539,-0.242299 -0.0099,-0.104764 -0.03029,-0.231872 -0.05412,-0.340112 -0.004,-0.01638 -0.03525,-0.137037 -0.04518,-0.173779 -0.003,-0.0094 -0.0069,-0.02383 -0.0089,-0.03227 -0.01589,-0.0576 -0.07497,-0.220452 -0.105261,-0.28897 -0.0055,-0.01192 -0.0094,-0.02234 -0.0094,-0.02383 0,-0.01589 -0.125618,-0.262159 -0.173283,-0.339119 -0.0139,-0.02284 -0.02532,-0.04369 -0.02532,-0.04618 0,-0.0025 -0.002,-0.0045 -0.005,-0.0045 -0.0025,0 -0.005,-0.0025 -0.005,-0.005 0,-0.003 -0.01291,-0.02483 -0.0288,-0.04866 -0.04469,-0.06653 -0.09682,-0.142003 -0.102778,-0.147961 -0.0025,-0.0035 -0.0139,-0.01738 -0.02483,-0.03178 -0.02631,-0.03476 -0.08292,-0.106254 -0.08639,-0.109233 -0.002,-0.0015 -0.01638,-0.01787 -0.03277,-0.03724 -0.02681,-0.03128 -0.07547,-0.08341 -0.130086,-0.139023 -0.03972,-0.04071 -0.129094,-0.125121 -0.162857,-0.153919 -0.01887,-0.01638 -0.03575,-0.03078 -0.03724,-0.03277 -0.003,-0.0035 -0.07448,-0.06008 -0.109233,-0.08639 -0.0144,-0.01092 -0.0283,-0.02234 -0.03178,-0.02483 -0.01241,-0.01142 -0.189668,-0.131576 -0.194137,-0.131576 -0.0015,0 -0.0055,-0.0025 -0.0089,-0.0055 -0.03426,-0.02929 -0.367916,-0.203074 -0.390756,-0.203074 -0.0074,0 -0.0065,-0.0035 0.0089,-0.03128 0.04767,-0.08739 0.06951,-0.169808 0.07398,-0.277551 0.0015,-0.0432 0.0045,-0.07845 0.0065,-0.07845 0.002,0 0.02135,0.0079 0.0427,0.01787 0.0422,0.01887 0.05809,0.02582 0.07398,0.03227 0.06057,0.02433 0.276558,0.136541 0.337629,0.175269 0.0149,0.0099 0.0283,0.01787 0.02979,0.01787 9.79e-4,0 0.01936,0.01142 0.04071,0.02483 0.02135,0.0139 0.0422,0.02731 0.04618,0.02979 0.02433,0.01539 0.09235,0.06157 0.09434,0.06405 0.0015,0.002 0.0094,0.0074 0.01738,0.01241 0.01688,0.01092 0.09285,0.06753 0.09682,0.07249 0.0015,0.002 0.01043,0.0084 0.02036,0.01539 0.01837,0.01241 0.03277,0.02383 0.115688,0.09384 0.06902,0.05809 0.102281,0.08937 0.194136,0.181228 0.09185,0.09185 0.123136,0.125121 0.181228,0.194136 0.07001,0.08292 0.08143,0.09732 0.09384,0.115688 0.0069,0.0099 0.01341,0.01887 0.01539,0.02036 0.005,0.004 0.06157,0.07994 0.07249,0.09682 0.005,0.0084 0.01043,0.01589 0.01241,0.01738 0.0025,0.002 0.04866,0.07001 0.06405,0.09434 0.0025,0.004 0.01589,0.02483 0.02979,0.04618 0.01341,0.02135 0.02483,0.03972 0.02483,0.04071 0,0.0015 0.0079,0.0149 0.01787,0.02979 0.01688,0.02731 0.02731,0.04518 0.07001,0.124129 0.01986,0.03625 0.09583,0.190165 0.105758,0.213501 0.01092,0.02681 0.02036,0.04816 0.03625,0.08441 0.0094,0.02185 0.02582,0.06206 0.03575,0.08937 0.0099,0.02731 0.02234,0.06107 0.02731,0.07448 0.02483,0.06504 0.07299,0.225914 0.09384,0.312804 0.01688,0.07001 0.01936,0.08093 0.03029,0.136541 0.02135,0.111715 0.02433,0.127604 0.02979,0.163849 0.003,0.02036 0.0074,0.04915 0.01043,0.06405 0.0025,0.0149 0.0045,0.03674 0.0045,0.04866 0,0.01192 0.0015,0.02135 0.004,0.02135 0.002,0 0.06703,-0.06355 0.144983,-0.141506 0.07795,-0.07795 0.142995,-0.141507 0.144981,-0.141507 0.0065,0 0.296915,0.29344 0.296915,0.299894 0,0.0089 -0.648943,0.658377 -0.656887,0.65788 -0.0035,-5.04e-4 -0.07249,-0.06753 -0.153422,-0.14945 z"
       inkscape:connector-curvature="0" />
    <path
       style="fill:#ffffff;stroke-width:0.00049651"
       id="path12"
       d="m 38.515978,73.412992 c -0.08093,-0.0432 -0.155408,-0.06008 -0.266627,-0.06008 -0.04618,-5.04e-4 -0.08341,-5.04e-4 -0.08341,-9.79e-4 0,-5.04e-4 0.0079,-0.01837 0.01787,-0.03972 0.01638,-0.03674 0.01986,-0.04419 0.03128,-0.07249 0.02929,-0.06951 0.137534,-0.278048 0.176262,-0.339119 0.0099,-0.0149 0.01787,-0.0283 0.01787,-0.02979 0,-9.78e-4 0.01142,-0.01936 0.02483,-0.04071 0.0139,-0.02135 0.02731,-0.0422 0.02979,-0.04618 0.01539,-0.02433 0.06157,-0.09235 0.06405,-0.09434 0.002,-0.0015 0.0074,-0.0089 0.01241,-0.01738 0.01092,-0.01688 0.06753,-0.09285 0.07249,-0.09682 0.002,-0.0015 0.0084,-0.01043 0.01539,-0.02036 0.01241,-0.01837 0.02383,-0.03277 0.09384,-0.115688 0.05809,-0.06901 0.08937,-0.102282 0.181227,-0.194137 0.09185,-0.09185 0.125122,-0.123135 0.194137,-0.181227 0.08292,-0.07001 0.09732,-0.08143 0.115688,-0.09384 0.0099,-0.0069 0.01887,-0.01341 0.02036,-0.01539 0.004,-0.005 0.07994,-0.06157 0.09682,-0.07249 0.0084,-0.005 0.01589,-0.01043 0.01738,-0.01241 0.002,-0.0025 0.07001,-0.04866 0.09434,-0.06405 0.004,-0.0025 0.02483,-0.01589 0.04618,-0.02979 0.02135,-0.01341 0.03972,-0.02483 0.04071,-0.02483 0.0015,0 0.0149,-0.0079 0.02979,-0.01787 0.02731,-0.01688 0.04518,-0.02731 0.124129,-0.07001 0.03624,-0.01986 0.190164,-0.09583 0.213501,-0.105757 0.02681,-0.01092 0.04816,-0.02036 0.08441,-0.03625 0.02184,-0.0094 0.06206,-0.02582 0.08937,-0.03575 0.02731,-0.0099 0.06107,-0.02234 0.07448,-0.02731 0.06504,-0.02483 0.225914,-0.07299 0.312804,-0.09384 0.07001,-0.01688 0.08093,-0.01936 0.136541,-0.03029 0.0288,-0.0055 0.06902,-0.01341 0.08937,-0.01738 0.02036,-0.004 0.05511,-0.0099 0.07696,-0.01291 0.02184,-0.0035 0.05611,-0.0084 0.07597,-0.01142 l 0.03625,-0.006 -0.142003,-0.14101 c -0.07746,-0.07796 -0.141506,-0.143504 -0.141506,-0.146483 0,-0.006 0.293936,-0.30039 0.299894,-0.30039 0.006,0 0.658376,0.652418 0.658376,0.658376 0,0.0025 -0.06355,0.06802 -0.141506,0.145975 -0.07795,0.07795 -0.141506,0.144486 -0.141506,0.147465 0,0.005 -0.01589,0.0065 -0.06504,0.0065 -0.06206,0 -0.11966,0.0035 -0.240313,0.01539 -0.08739,0.0079 -0.19364,0.02433 -0.283013,0.0422 -0.02184,0.0045 -0.04915,0.0099 -0.06107,0.01241 -0.01192,0.0025 -0.02333,0.0055 -0.02582,0.007 -0.0025,0.0015 -0.0139,0.0045 -0.02582,0.0069 -0.01936,0.0045 -0.07448,0.01837 -0.11817,0.03078 -0.0094,0.003 -0.02383,0.0069 -0.03227,0.0089 -0.0576,0.01589 -0.220452,0.07497 -0.288971,0.105261 -0.01192,0.0055 -0.02234,0.0094 -0.02383,0.0094 -0.01589,0 -0.262159,0.125618 -0.339118,0.173283 -0.02284,0.0139 -0.04369,0.02532 -0.04618,0.02532 -0.0025,0 -0.0045,0.0025 -0.0045,0.005 0,0.003 -0.0025,0.005 -0.005,0.005 -0.003,0 -0.02483,0.01291 -0.04866,0.0288 -0.06653,0.04469 -0.142003,0.09682 -0.147962,0.102779 -0.0035,0.0025 -0.01738,0.0139 -0.03178,0.02483 -0.03476,0.02632 -0.106254,0.08292 -0.109233,0.08639 -0.0015,0.002 -0.01787,0.01638 -0.03724,0.03277 -0.03376,0.0288 -0.123135,0.113205 -0.162856,0.153919 -0.05462,0.05561 -0.103275,0.107743 -0.130087,0.139023 -0.01638,0.01936 -0.03078,0.03575 -0.03277,0.03724 -0.0035,0.003 -0.06008,0.07448 -0.08639,0.109233 -0.01092,0.0144 -0.02234,0.0283 -0.02483,0.03178 -0.006,0.006 -0.05809,0.08143 -0.102778,0.147961 -0.01589,0.02383 -0.0288,0.04568 -0.0288,0.04866 0,0.0025 -0.002,0.005 -0.005,0.005 -0.0025,0 -0.005,0.002 -0.005,0.0045 0,0.0025 -0.0094,0.01986 -0.02085,0.03823 -0.03525,0.05809 -0.07944,0.140017 -0.11966,0.222935 -0.02135,0.04369 -0.04071,0.08341 -0.04369,0.08788 -0.0025,0.005 -0.0045,0.01241 -0.0045,0.01639 0,0.01142 -0.0144,0.0084 -0.04717,-0.0089 z"
       inkscape:connector-curvature="0" />
  </g>
</svg>
