<?xml version="1.0" encoding="UTF-8" standalone="no"?>
<svg
   xmlns:dc="http://purl.org/dc/elements/1.1/"
   xmlns:cc="http://creativecommons.org/ns#"
   xmlns:rdf="http://www.w3.org/1999/02/22-rdf-syntax-ns#"
   xmlns:svg="http://www.w3.org/2000/svg"
   xmlns="http://www.w3.org/2000/svg"
   xmlns:sodipodi="http://sodipodi.sourceforge.net/DTD/sodipodi-0.dtd"
   xmlns:inkscape="http://www.inkscape.org/namespaces/inkscape"
   version="1.0"
   width="1600px"
   height="1600px"
   viewBox="0 0 16000 16000"
   preserveAspectRatio="xMidYMid meet"
   id="svg15"
   sodipodi:docname="logo.svg"
   inkscape:version="0.92.4 (unknown)">
  <metadata
     id="metadata21">
    <rdf:RDF>
      <cc:Work
         rdf:about="">
        <dc:format>image/svg+xml</dc:format>
        <dc:type
           rdf:resource="http://purl.org/dc/dcmitype/StillImage" />
      </cc:Work>
    </rdf:RDF>
  </metadata>
  <defs
     id="defs19" />
  <sodipodi:namedview
     pagecolor="#ffffff"
     bordercolor="#666666"
     borderopacity="1"
     objecttolerance="10"
     gridtolerance="10"
     guidetolerance="10"
     inkscape:pageopacity="0"
     inkscape:pageshadow="2"
     inkscape:window-width="640"
     inkscape:window-height="480"
     id="namedview17"
     showgrid="false"
     inkscape:zoom="0.1475"
     inkscape:cx="800"
     inkscape:cy="800"
     inkscape:window-x="2604"
     inkscape:window-y="358"
     inkscape:window-maximized="0"
     inkscape:current-layer="layer101" />
  <g
     id="layer101"
     fill="#000000"
     stroke="none">
    <path
       d="M8027 15212 c-361 -361 -657 -662 -657 -667 0 -5 134 -144 297 -307 l298 -298 148 0 c298 0 730 -47 1072 -116 44 -9 99 -20 123 -25 24 -5 47 -11 52 -14 5 -3 28 -9 52 -14 40 -9 159 -40 236 -62 17 -5 47 -13 65 -18 115 -31 444 -150 584 -212 24 -11 45 -19 48 -19 16 0 363 -169 510 -249 105 -57 255 -145 272 -160 7 -6 15 -11 18 -11 9 0 366 -242 391 -265 7 -5 35 -28 64 -50 70 -53 214 -167 220 -174 3 -4 37 -33 75 -66 68 -58 248 -228 328 -310 110 -112 208 -217 262 -280 33 -38 62 -72 66 -75 7 -6 121 -150 174 -220 22 -29 45 -57 50 -64 12 -12 117 -164 207 -298 32 -48 58 -92 58 -98 0 -5 5 -10 10 -10 6 0 10 -4 10 -9 0 -5 23 -47 51 -93 28 -46 65 -108 82 -138 55 -98 227 -445 227 -457 0 -20 14 -22 45 -8 17 7 48 21 70 30 58 26 146 48 280 71 87 15 227 14 373 -2 28 -3 52 -4 52 -1 0 2 -16 40 -36 83 -19 43 -39 88 -43 99 -65 160 -281 582 -368 718 -24 37 -43 69 -43 72 0 2 -23 39 -50 82 -28 43 -55 85 -60 93 -31 49 -124 186 -129 190 -4 3 -15 19 -25 35 -22 34 -136 187 -146 195 -4 3 -17 21 -31 41 -25 37 -45 62 -189 233 -114 136 -176 203 -365 391 -185 185 -252 248 -391 365 -167 141 -196 164 -233 189 -20 14 -38 27 -41 31 -8 10 -161 124 -195 146 -16 10 -32 21 -35 25 -4 5 -141 98 -190 129 -8 5 -50 32 -93 60 -43 27 -80 50 -82 50 -3 0 -36 20 -75 45 -39 25 -72 45 -75 45 -2 0 -28 14 -57 31 -29 18 -138 75 -243 128 -168 85 -234 117 -350 166 -16 7 -66 28 -110 48 -44 19 -125 52 -180 72 -55 20 -122 45 -150 55 -131 50 -455 147 -630 189 -141 34 -163 39 -275 61 -225 43 -257 49 -330 60 -41 6 -99 15 -129 21 -30 5 -71 9 -92 9 -20 0 -44 2 -52 5 -9 4 79 99 269 289 156 156 284 287 284 292 0 12 -595 604 -606 604 -5 0 -305 -296 -667 -658z"
       id="path2"
       style="fill:#ffffff" />
    <path
       d="M5405 14209 c-49 -22 -99 -44 -110 -49 -11 -4 -49 -21 -85 -36 -81 -35 -426 -210 -498 -253 -29 -17 -55 -31 -57 -31 -3 0 -36 -20 -75 -45 -39 -25 -72 -45 -75 -45 -2 0 -39 -23 -82 -50 -43 -28 -85 -55 -93 -60 -49 -31 -186 -124 -190 -129 -3 -4 -18 -15 -35 -25 -34 -22 -187 -136 -195 -146 -3 -4 -21 -17 -41 -31 -37 -25 -66 -48 -233 -189 -139 -117 -206 -180 -391 -365 -189 -188 -251 -255 -365 -391 -144 -171 -164 -196 -189 -233 -14 -20 -27 -38 -31 -41 -10 -8 -124 -161 -146 -195 -10 -16 -21 -32 -25 -35 -5 -4 -98 -141 -129 -190 -5 -8 -32 -50 -60 -93 -27 -43 -50 -80 -50 -82 0 -3 -20 -36 -45 -75 -25 -39 -45 -72 -45 -75 0 -2 -14 -28 -31 -57 -18 -29 -75 -138 -128 -243 -85 -168 -116 -233 -166 -350 -7 -16 -28 -66 -48 -110 -19 -44 -52 -125 -72 -180 -20 -55 -45 -122 -55 -150 -50 -131 -147 -455 -189 -630 -34 -141 -39 -163 -61 -275 -43 -225 -49 -257 -60 -330 -6 -41 -15 -99 -21 -129 -5 -30 -9 -73 -9 -95 l0 -41 -283 283 c-155 155 -289 282 -297 282 -16 0 -600 -580 -600 -596 0 -17 1312 -1325 1326 -1322 8 2 145 134 306 295 l293 292 -4 108 c-9 278 53 817 139 1203 8 33 71 276 91 350 6 19 14 49 18 65 32 116 151 444 212 582 11 24 19 45 19 48 0 33 252 525 358 699 23 37 42 72 42 77 0 5 5 9 10 9 6 0 10 5 10 10 0 6 26 50 58 98 90 134 195 286 207 298 5 7 28 35 50 64 53 70 167 214 174 220 4 3 33 37 66 75 54 63 152 168 262 280 80 82 260 252 328 310 39 33 72 62 75 66 6 7 150 121 220 174 29 22 57 45 64 50 25 23 382 265 391 265 3 0 11 5 18 11 39 34 294 175 507 281 80 39 147 73 149 74 2 2 -3 23 -12 46 -47 128 -60 219 -61 403 0 141 4 197 18 260 22 96 30 135 25 135 -2 0 -44 -19 -94 -41z"
       id="path4"
       style="fill:#ffffff" />
    <path
       d="M7639 13169 c-75 -4 -149 -10 -165 -13 -16 -3 -72 -11 -124 -16 -90 -9 -151 -17 -292 -40 -133 -21 -319 -61 -498 -108 -72 -19 -363 -113 -405 -131 -11 -5 -61 -25 -112 -45 -51 -19 -123 -50 -160 -67 -182 -84 -385 -184 -443 -219 -123 -73 -155 -91 -172 -97 -10 -3 -18 -9 -18 -14 0 -5 -4 -9 -10 -9 -9 0 -208 -126 -220 -140 -3 -3 -41 -30 -85 -60 -44 -30 -85 -59 -91 -65 -7 -5 -35 -28 -64 -50 -184 -141 -292 -236 -485 -430 -173 -172 -235 -239 -305 -325 -25 -30 -49 -60 -55 -66 -5 -6 -23 -28 -40 -49 -16 -21 -35 -43 -40 -49 -6 -6 -22 -27 -35 -46 -13 -19 -27 -37 -30 -40 -20 -17 -260 -377 -260 -390 0 -6 -4 -10 -10 -10 -5 0 -10 -5 -10 -10 0 -6 -11 -27 -24 -48 -100 -153 -292 -551 -376 -777 -25 -67 -32 -87 -50 -130 -51 -127 -145 -467 -188 -685 -6 -30 -16 -77 -22 -105 -25 -122 -42 -243 -70 -507 -13 -125 -13 -774 0 -892 26 -236 33 -289 52 -396 20 -113 25 -140 47 -250 45 -226 143 -561 206 -705 7 -16 21 -50 30 -75 91 -241 288 -646 376 -772 11 -14 19 -31 19 -37 0 -6 5 -11 10 -11 6 0 10 -5 10 -10 0 -14 239 -372 260 -390 3 -3 17 -21 30 -40 13 -19 29 -40 35 -46 5 -6 24 -28 40 -49 115 -147 196 -237 395 -435 203 -204 309 -297 490 -435 29 -22 57 -45 64 -50 6 -6 47 -35 91 -65 44 -30 82 -57 85 -60 12 -14 211 -140 220 -140 6 0 10 -4 10 -9 0 -5 8 -11 18 -14 18 -7 80 -42 152 -88 54 -33 422 -212 530 -257 380 -156 755 -263 1150 -326 58 -9 130 -21 160 -26 172 -30 385 -41 760 -39 211 1 396 6 410 10 14 4 70 13 125 19 199 22 398 56 590 100 28 7 66 16 85 20 74 17 195 52 264 76 39 14 89 29 111 35 22 5 54 16 70 23 40 18 68 30 140 56 33 12 74 28 90 35 17 8 55 23 85 35 81 32 410 195 497 246 41 24 77 44 80 44 2 0 24 14 48 30 24 17 46 30 49 30 6 0 206 130 216 140 3 3 34 25 70 49 36 25 67 48 70 51 3 3 21 17 40 30 19 13 49 35 66 49 17 14 40 33 50 41 228 181 475 413 627 588 40 46 83 96 97 111 27 29 66 76 102 124 13 17 48 62 78 101 31 39 76 100 100 136 25 36 48 67 51 70 3 3 12 16 19 29 7 14 17 30 21 35 20 24 99 146 99 152 0 3 9 18 19 33 11 15 34 54 52 86 18 33 43 78 56 100 39 67 223 446 223 460 0 2 11 28 24 57 47 105 135 353 175 498 7 25 17 55 22 67 25 65 107 442 129 593 52 357 55 400 55 825 0 384 -4 456 -36 695 -20 150 -56 354 -79 450 -5 19 -14 58 -20 85 -15 68 -30 123 -45 170 -7 22 -27 87 -45 145 -17 58 -41 130 -51 161 -10 30 -19 63 -19 72 0 9 -3 17 -8 17 -4 0 -18 28 -30 63 -13 34 -35 86 -48 115 -13 29 -24 55 -24 57 0 14 -184 393 -223 460 -13 22 -38 67 -56 100 -18 32 -41 71 -52 86 -10 15 -19 30 -19 33 0 5 -103 162 -138 211 -4 6 -27 39 -52 75 -36 54 -117 161 -173 230 -7 8 -30 38 -52 65 -22 28 -54 66 -71 85 -18 19 -56 62 -84 95 -133 151 -382 389 -550 525 -30 25 -57 47 -60 50 -3 3 -41 32 -85 65 -44 33 -82 62 -85 66 -3 3 -34 25 -70 50 -36 24 -69 47 -75 52 -32 24 -205 137 -210 137 -4 0 -26 14 -50 30 -24 17 -46 30 -49 30 -3 0 -40 20 -81 45 -42 25 -151 81 -243 126 -92 44 -174 84 -182 88 -26 14 -183 78 -245 101 -33 12 -69 26 -80 30 -37 16 -289 99 -350 115 -161 44 -385 96 -492 114 -135 23 -181 31 -258 40 -44 6 -120 16 -170 22 -110 15 -640 26 -826 18z m736 -689 c179 -20 288 -36 425 -61 140 -27 339 -76 445 -110 50 -16 106 -34 125 -40 19 -6 44 -14 55 -19 11 -5 40 -16 65 -24 120 -38 226 -84 455 -197 181 -89 238 -120 307 -165 21 -13 40 -24 43 -24 3 0 11 -4 18 -10 7 -5 62 -42 122 -83 144 -95 209 -140 215 -147 3 -3 21 -17 42 -32 20 -15 42 -34 50 -41 7 -7 22 -19 34 -27 21 -15 105 -87 194 -165 77 -69 292 -287 355 -360 33 -39 62 -72 65 -75 3 -3 24 -27 45 -55 22 -27 42 -52 45 -55 3 -3 21 -25 40 -50 19 -25 37 -47 41 -50 3 -3 54 -77 113 -165 59 -88 110 -165 114 -171 8 -11 23 -38 52 -90 11 -18 30 -51 44 -73 23 -35 160 -313 199 -401 8 -19 24 -55 35 -80 23 -52 55 -137 73 -195 7 -22 16 -44 19 -50 4 -5 12 -30 20 -55 7 -25 20 -70 30 -100 10 -30 23 -75 30 -100 7 -25 18 -65 25 -90 38 -133 79 -343 104 -530 30 -225 35 -306 35 -600 0 -294 -5 -375 -35 -600 -25 -189 -66 -396 -104 -530 -7 -25 -18 -65 -25 -90 -7 -25 -20 -70 -30 -100 -10 -30 -23 -75 -30 -100 -8 -25 -16 -49 -20 -55 -3 -5 -12 -28 -19 -50 -15 -49 -49 -139 -66 -180 -60 -140 -207 -443 -241 -496 -14 -22 -33 -55 -44 -73 -29 -52 -44 -79 -52 -90 -4 -6 -55 -83 -114 -171 -59 -88 -110 -162 -113 -165 -4 -3 -22 -25 -41 -50 -19 -25 -37 -47 -40 -50 -3 -3 -23 -27 -45 -55 -21 -27 -42 -52 -45 -55 -3 -3 -32 -36 -65 -75 -77 -90 -289 -302 -384 -385 -41 -36 -82 -72 -91 -80 -9 -9 -34 -29 -55 -45 -22 -17 -46 -36 -53 -43 -8 -7 -30 -25 -50 -40 -21 -15 -39 -30 -42 -33 -5 -7 -16 -14 -201 -137 -68 -45 -129 -87 -136 -92 -7 -6 -15 -10 -19 -10 -3 0 -20 -10 -37 -22 -51 -37 -413 -222 -532 -273 -82 -36 -101 -43 -155 -63 -30 -11 -73 -26 -95 -33 -22 -7 -44 -16 -50 -19 -5 -4 -30 -12 -55 -19 -25 -7 -61 -19 -80 -27 -77 -29 -326 -92 -490 -123 -313 -59 -499 -75 -855 -74 -418 0 -660 28 -1075 123 -147 34 -457 134 -615 200 -11 5 -40 17 -65 27 -106 43 -490 240 -547 281 -17 12 -34 22 -38 22 -7 0 -329 215 -347 233 -7 7 -40 32 -73 57 -70 52 -69 51 -245 208 -153 136 -260 244 -380 382 -45 52 -93 107 -106 122 -13 15 -24 32 -24 37 0 5 -3 11 -8 13 -4 2 -23 23 -42 48 -19 25 -41 52 -49 60 -20 20 -253 374 -284 430 -65 120 -88 162 -135 255 -50 99 -112 231 -112 240 0 3 -9 24 -19 48 -19 42 -78 197 -111 292 -40 115 -100 339 -129 480 -7 33 -16 78 -21 100 -5 22 -13 72 -19 110 -6 39 -17 113 -26 165 -49 312 -48 803 1 1140 22 148 34 229 44 275 5 22 14 67 21 100 29 141 89 365 129 480 33 95 92 250 111 292 10 24 19 45 19 48 0 9 62 141 112 240 47 93 70 135 135 255 31 56 264 410 284 430 8 8 30 35 49 60 19 25 37 47 40 50 3 3 21 25 40 50 60 78 235 271 327 361 84 82 106 103 253 229 35 30 68 60 74 65 6 6 38 31 71 55 33 25 62 48 65 51 7 8 347 239 352 239 3 0 46 25 96 55 75 45 431 224 507 255 122 49 233 90 245 90 9 0 20 4 25 8 6 5 30 14 55 22 25 7 69 21 98 31 52 19 176 54 242 69 305 70 538 105 805 120 164 10 571 4 700 -10z"
       id="path6"
       style="fill:#ffffff" />
    <path
       d="M8496 10663 c-21 -56 -74 -199 -86 -228 -4 -11 -13 -36 -20 -55 -7 -19 -17 -46 -22 -60 -15 -35 -24 -59 -38 -100 -7 -19 -18 -48 -25 -65 -7 -16 -21 -55 -33 -85 -11 -30 -34 -93 -52 -140 -18 -47 -41 -110 -52 -140 -11 -30 -25 -67 -31 -81 l-11 -27 -170 -5 c-94 -4 -194 -10 -223 -15 -47 -7 -53 -6 -61 12 -42 89 -72 156 -72 159 0 3 -16 40 -36 84 -76 165 -92 200 -123 265 -17 37 -31 69 -31 71 0 3 -18 45 -40 94 -23 48 -45 97 -50 108 -46 105 -103 215 -109 215 -5 0 -51 -20 -102 -43 -158 -73 -248 -114 -319 -144 -41 -18 -121 -55 -243 -112 -48 -22 -92 -41 -98 -41 -15 0 -6 -45 22 -107 12 -26 30 -68 41 -93 48 -106 72 -159 103 -225 18 -38 40 -88 50 -110 10 -22 28 -62 40 -90 13 -27 31 -68 40 -90 10 -22 38 -83 62 -135 24 -52 48 -104 53 -115 4 -11 15 -36 23 -55 l16 -34 -72 -71 c-40 -38 -103 -109 -141 -157 -37 -49 -72 -88 -77 -88 -8 0 -67 21 -193 71 -27 10 -53 19 -57 19 -5 0 -28 8 -52 19 -23 10 -58 24 -77 31 -19 7 -44 16 -55 20 -11 4 -36 13 -55 20 -19 7 -48 18 -65 25 -29 13 -149 59 -250 95 -27 10 -86 32 -130 49 -112 43 -143 48 -151 25 -6 -21 -61 -166 -74 -199 -4 -11 -13 -36 -20 -55 -15 -42 -29 -79 -41 -102 -5 -10 -9 -27 -9 -37 0 -11 -4 -22 -9 -25 -4 -3 -16 -27 -25 -53 -41 -112 -55 -152 -80 -216 -33 -84 -32 -95 2 -109 15 -6 41 -16 57 -24 28 -12 137 -53 250 -94 146 -53 222 -82 240 -89 50 -22 128 -52 220 -86 55 -20 123 -45 150 -55 28 -10 71 -26 97 -35 l47 -17 -2 -102 c-1 -55 2 -147 7 -203 7 -84 6 -103 -5 -103 -8 0 -45 -15 -84 -34 -38 -19 -92 -44 -120 -56 -27 -13 -72 -33 -100 -45 -27 -13 -72 -33 -100 -45 -58 -25 -133 -60 -258 -119 -48 -22 -89 -41 -92 -41 -2 0 -29 -11 -60 -25 -30 -14 -81 -37 -112 -51 -112 -50 -123 -56 -123 -71 0 -16 11 -44 65 -158 18 -38 39 -86 48 -105 9 -19 32 -71 52 -115 20 -44 40 -89 44 -100 5 -11 25 -54 43 -95 19 -41 48 -103 63 -137 28 -63 40 -71 73 -54 31 17 151 71 156 71 3 0 58 25 123 55 65 31 127 60 138 64 11 5 50 23 87 40 37 17 69 31 71 31 5 0 116 50 242 110 216 102 205 100 257 43 74 -82 159 -162 219 -209 l27 -20 -30 -80 c-16 -43 -39 -104 -50 -134 -11 -30 -39 -104 -63 -165 -24 -60 -67 -173 -95 -250 -28 -77 -61 -165 -72 -195 -11 -30 -35 -93 -54 -140 -38 -95 -42 -128 -16 -136 18 -6 164 -61 197 -74 11 -4 36 -13 55 -20 19 -7 45 -16 58 -21 12 -5 32 -13 45 -18 12 -5 38 -14 57 -21 40 -14 62 -22 105 -40 78 -32 239 -90 252 -90 14 0 28 28 63 130 7 19 18 49 25 65 7 17 27 68 45 115 17 47 40 107 51 134 10 27 19 53 19 57 0 5 8 28 19 52 10 23 24 58 31 77 13 37 14 40 53 140 14 36 40 103 57 150 17 47 36 97 42 112 10 27 12 28 67 21 77 -9 201 -9 296 0 l81 7 33 -72 c18 -40 46 -100 61 -133 45 -97 80 -175 80 -180 0 -3 18 -44 41 -92 74 -159 97 -207 119 -258 12 -27 32 -72 45 -100 12 -27 32 -72 45 -100 32 -74 36 -80 52 -83 9 -2 55 16 104 39 49 23 107 49 129 59 53 23 130 58 180 80 177 82 314 144 333 151 37 14 34 27 -60 229 -37 80 -61 134 -81 180 -9 19 -32 71 -52 115 -20 44 -40 89 -44 100 -5 11 -25 54 -44 95 -19 41 -42 91 -50 110 -9 19 -32 70 -52 114 l-36 79 27 21 c102 79 175 153 267 268 26 33 30 33 93 9 27 -11 74 -28 104 -39 115 -42 226 -84 255 -97 17 -7 46 -18 65 -25 43 -15 79 -29 102 -41 10 -5 26 -9 36 -9 10 0 22 -4 28 -9 5 -5 29 -16 54 -24 71 -25 201 -73 244 -91 21 -9 44 -16 51 -16 11 0 26 26 45 75 5 11 19 49 33 85 14 36 40 103 57 150 18 47 40 107 51 134 10 27 19 53 19 57 0 5 8 28 19 52 10 23 24 58 31 77 7 19 16 44 21 55 24 58 39 99 39 109 0 7 -17 18 -37 25 -32 10 -81 29 -238 91 -11 4 -36 13 -55 20 -19 7 -44 16 -55 20 -11 4 -36 13 -55 20 -19 7 -45 16 -57 21 -13 5 -33 13 -45 18 -13 5 -50 19 -83 31 -33 12 -80 30 -105 40 -50 20 -228 86 -248 92 -10 3 -14 49 -16 208 -2 113 -6 223 -10 245 l-7 40 58 27 c32 15 81 37 108 49 28 12 83 37 122 55 40 19 75 34 78 34 3 0 47 20 98 44 50 24 115 54 142 66 28 12 78 35 113 51 35 16 65 29 67 29 2 0 38 16 79 35 42 19 81 35 86 35 18 0 11 55 -14 106 -23 49 -55 118 -83 184 -17 40 -45 100 -96 210 -19 41 -45 98 -57 125 -12 28 -33 74 -46 103 -13 29 -24 57 -24 62 0 24 -50 5 -285 -105 -178 -83 -204 -95 -208 -95 -3 0 -45 -18 -94 -41 -48 -22 -101 -46 -118 -54 -16 -7 -73 -33 -125 -57 -52 -25 -109 -50 -127 -57 l-31 -13 -104 104 c-57 57 -121 117 -143 133 -22 17 -49 38 -59 47 -11 10 -28 20 -38 24 -19 6 -24 19 -9 28 4 3 16 27 25 53 41 113 56 153 86 233 18 47 41 110 52 140 27 75 67 178 85 219 8 18 19 45 23 60 8 24 43 121 86 233 18 47 18 48 -1 62 -11 8 -65 31 -120 51 -183 67 -370 136 -390 145 -136 56 -254 100 -271 100 -6 0 -19 -21 -28 -47z m-366 -1668 c93 -14 145 -25 185 -40 50 -18 243 -116 260 -132 11 -10 36 -30 55 -44 45 -34 115 -104 149 -149 14 -19 34 -44 44 -55 16 -18 115 -213 132 -260 17 -48 34 -127 45 -216 17 -124 2 -252 -48 -414 -25 -82 -122 -251 -187 -325 -121 -139 -215 -205 -417 -294 -144 -64 -404 -80 -573 -37 -93 24 -268 104 -352 162 -61 42 -190 171 -232 233 -58 83 -138 258 -162 351 -43 170 -27 428 37 573 89 202 163 307 299 422 109 93 278 177 420 209 140 33 214 36 345 16z"
       id="path8"
       style="fill:#ffffff" />
    <path
       d="M14238 8308 l-298 -300 0 -135 c0 -129 -7 -244 -31 -488 -20 -211 -61 -467 -109 -685 -8 -33 -71 -276 -91 -350 -6 -19 -14 -48 -18 -65 -32 -116 -151 -444 -212 -582 -11 -24 -19 -45 -19 -48 0 -32 -253 -528 -349 -683 -28 -46 -51 -88 -51 -93 0 -5 -4 -9 -10 -9 -5 0 -10 -5 -10 -10 0 -6 -26 -50 -58 -98 -90 -134 -195 -286 -207 -298 -5 -7 -28 -35 -50 -64 -53 -70 -167 -214 -174 -220 -4 -3 -33 -36 -66 -75 -54 -63 -152 -168 -262 -280 -80 -82 -260 -252 -328 -310 -38 -33 -72 -62 -75 -66 -6 -7 -150 -121 -220 -174 -29 -22 -57 -45 -64 -50 -25 -23 -382 -265 -391 -265 -3 0 -11 -5 -18 -11 -69 -59 -741 -409 -787 -409 -15 0 -13 -7 18 -63 96 -176 140 -342 149 -559 3 -87 9 -158 13 -158 4 0 43 16 86 36 85 38 117 52 149 65 122 49 557 275 680 353 30 20 57 36 60 36 2 0 39 23 82 50 43 28 85 55 93 60 49 31 186 124 190 129 3 4 19 15 35 25 34 22 187 136 195 146 3 4 21 17 41 31 37 25 66 48 233 189 139 117 206 180 391 365 185 185 248 252 365 391 141 167 164 196 189 233 14 20 27 38 31 41 10 8 124 161 146 195 10 17 21 32 25 35 5 4 98 141 129 190 5 8 32 50 60 93 27 43 50 80 50 82 0 3 16 30 36 60 34 55 55 91 141 250 40 73 193 383 213 430 22 54 41 97 73 170 19 44 52 125 72 180 20 55 45 123 55 150 50 131 147 455 189 630 34 141 39 163 61 275 43 225 49 257 60 330 6 41 15 99 21 129 5 30 9 74 9 98 0 24 3 43 8 43 4 0 135 -128 292 -285 157 -157 288 -285 292 -285 13 0 598 591 598 604 0 18 -1307 1326 -1323 1325 -7 -1 -146 -136 -309 -301z"
       id="path10"
       style="fill:#ffffff" />
    <path
       d="M2465 5597 c-163 -87 -313 -121 -537 -121 -93 -1 -168 -1 -168 -2 0 -1 16 -37 36 -80 33 -74 40 -89 63 -146 59 -140 277 -560 355 -683 20 -30 36 -57 36 -60 0 -2 23 -39 50 -82 28 -43 55 -85 60 -93 31 -49 124 -186 129 -190 4 -3 15 -18 25 -35 22 -34 136 -187 146 -195 4 -3 17 -21 31 -41 25 -37 48 -66 189 -233 117 -139 180 -206 365 -391 185 -185 252 -248 391 -365 167 -141 196 -164 233 -189 20 -14 38 -27 41 -31 8 -10 161 -124 195 -146 17 -10 32 -21 35 -25 4 -5 141 -98 190 -129 8 -5 50 -32 93 -60 43 -27 80 -50 82 -50 3 0 30 -16 60 -36 55 -34 91 -55 250 -141 73 -40 383 -193 430 -213 54 -22 97 -41 170 -73 44 -19 125 -52 180 -72 55 -20 123 -45 150 -55 131 -50 455 -147 630 -189 141 -34 163 -39 275 -61 58 -11 139 -27 180 -35 41 -8 111 -20 155 -26 44 -7 113 -17 153 -23 l73 -12 -286 -284 c-156 -157 -285 -289 -285 -295 0 -12 592 -605 604 -605 12 0 1326 1314 1326 1326 0 5 -128 137 -285 294 -157 157 -285 291 -285 297 0 10 -32 13 -131 13 -125 0 -241 7 -484 31 -176 16 -390 49 -570 85 -44 9 -99 20 -123 25 -24 5 -47 11 -52 14 -5 3 -28 9 -52 14 -39 9 -150 37 -238 62 -19 6 -48 14 -65 18 -116 32 -444 151 -582 212 -24 11 -45 19 -48 19 -32 0 -528 253 -683 349 -46 28 -88 51 -93 51 -5 0 -9 5 -9 10 0 6 -5 10 -10 10 -6 0 -50 26 -98 58 -134 90 -286 195 -298 207 -7 5 -35 28 -64 50 -70 53 -214 167 -220 174 -3 4 -36 33 -75 66 -68 58 -248 228 -328 310 -110 112 -208 217 -262 280 -33 39 -62 72 -66 75 -7 6 -121 150 -174 220 -22 29 -45 57 -50 64 -12 12 -117 164 -207 298 -32 48 -58 92 -58 98 0 5 -4 10 -10 10 -5 0 -10 4 -10 9 0 5 -19 40 -42 77 -71 117 -160 282 -241 449 -43 88 -82 168 -88 177 -5 10 -9 25 -9 33 0 23 -29 17 -95 -18z"
       id="path12"
       style="fill:#ffffff" />
  </g>
</svg>
